<svg id="Group_112" data-name="Group 112" xmlns="http://www.w3.org/2000/svg" width="31" height="30" viewBox="0 0 31 30">
  <rect id="Rectangle_297" data-name="Rectangle 297" width="31" height="30" rx="3" transform="translate(0 0)" fill="#07388a"/>
  <g id="tHuv2m.tif" transform="translate(10.414 7.069)">
    <g id="Group_19" data-name="Group 19">
      <path id="Path_13" data-name="Path 13" d="M-323.36,894.049a3.618,3.618,0,0,0-.355-.5q-3.2-3.215-6.4-6.419c-.044-.044-.093-.081-.153-.133.06-.063.1-.111.151-.158q3.19-3.2,6.382-6.39a1.3,1.3,0,0,0,.376-.566v-.2a.778.778,0,0,1-.032-.077.715.715,0,0,0-1.217-.32c-.391.381-.773.771-1.159,1.157q-2.976,2.982-5.954,5.962a.729.729,0,0,0-.241.789.87.87,0,0,0,.2.324q3.568,3.584,7.144,7.159a.715.715,0,0,0,1.223-.267.383.383,0,0,1,.033-.056Z" transform="translate(332 -879.058)" fill="#fff"/>
    </g>
  </g>
</svg>
