<svg id="Group_204" data-name="Group 204" xmlns="http://www.w3.org/2000/svg" width="58.98" height="58.94" viewBox="0 0 58.98 58.94">
  <path id="Path_515" data-name="Path 515" d="M-3715.268,1923.718a2.356,2.356,0,0,1-1.119-1.133v-.718l.266-.658q.388-.962.773-1.923c.742-1.846,1.51-3.755,2.281-5.623a1.872,1.872,0,0,0-.187-1.923,16.855,16.855,0,0,1-2.814-6.693l-.231-1.283-.089-.491v-3.046q.064-.349.125-.7c.1-.56.193-1.087.313-1.615a18.222,18.222,0,0,1,7.318-10.884,2.87,2.87,0,0,0,1.237-2.071,21.824,21.824,0,0,1,3.129-8.7,24.552,24.552,0,0,1,6.425-6.7,23.871,23.871,0,0,1,10.5-4.376,34.288,34.288,0,0,1,5.134-.4,25.058,25.058,0,0,1,19.77,9.229,20.939,20.939,0,0,1,4.989,15.256c-.035.642-.126,1.3-.209,1.861a1.535,1.535,0,0,1-1.553,1.325c-.044,0-.088,0-.132-.006a1.5,1.5,0,0,1-1.369-1.556c.007-.336.043-.679.081-1.042.029-.282.06-.574.079-.872a18.041,18.041,0,0,0-2.852-11.014,21.256,21.256,0,0,0-14.812-9.719,26.85,26.85,0,0,0-4.621-.415,22.37,22.37,0,0,0-14.982,5.673,18.788,18.788,0,0,0-6.5,11.676,17.539,17.539,0,0,0,2.232,11.574,21.3,21.3,0,0,0,13.015,10.188,23.77,23.77,0,0,0,6.586.952,23.667,23.667,0,0,0,8.671-1.684,3.3,3.3,0,0,1,1.215-.255,3.144,3.144,0,0,1,1.352.334c1.6.759,3.254,1.475,4.851,2.169q.959.417,1.917.836c.151.066.3.127.476.2l.3.119,1.741.708-.648-1.764-.095-.262c-.057-.158-.106-.295-.162-.434q-.388-.966-.783-1.931c-.551-1.354-1.121-2.757-1.657-4.14a1.689,1.689,0,0,1,.133-1.585,1.463,1.463,0,0,1,1.23-.628c.044,0,.089,0,.135,0a1.517,1.517,0,0,1,1.372,1.081q.727,1.8,1.459,3.607.689,1.7,1.376,3.4.283.7.569,1.4c.485,1.187.985,2.414,1.449,3.627a1.757,1.757,0,0,1-.126,1.645,1.423,1.423,0,0,1-1.212.611c-.061,0-.124,0-.187-.01a3.547,3.547,0,0,1-.957-.324l-.018-.008q-2.208-.967-4.412-1.94c-2.4-1.056-4.881-2.148-7.327-3.211a2.085,2.085,0,0,0-.832-.159,2.612,2.612,0,0,0-.636.079c-1.253.32-2.564.685-4.008,1.115a2.14,2.14,0,0,0-1.152.792,20.016,20.016,0,0,1-11.341,8.335,21.948,21.948,0,0,1-6.24.928,21.677,21.677,0,0,1-6.814-1.122,3.077,3.077,0,0,0-.976-.169,2.881,2.881,0,0,0-1.193.271c-2.254,1.007-4.557,2.014-6.782,2.988l-2.727,1.193-.04.019Zm6.4-32.492c-.154.185-.312.368-.47.551-.357.414-.729.843-1.063,1.31a14.371,14.371,0,0,0-2.563,11.679,14.4,14.4,0,0,0,3.065,6.3,1.911,1.911,0,0,1,.326,2.214c-.358.82-.692,1.659-1.015,2.471q-.187.471-.375.942c-.053.132-.1.26-.146.408-.025.072-.051.154-.084.247l-.623,1.8,1.742-.769c.522-.23,1.035-.452,1.539-.671,1.182-.514,2.3-1,3.417-1.529a2.61,2.61,0,0,1,1.139-.268,3.784,3.784,0,0,1,1.153.207,26.117,26.117,0,0,0,4.715,1.169,18.24,18.24,0,0,0,2.254.141,18.229,18.229,0,0,0,8.2-1.987,16.038,16.038,0,0,0,4.22-3l1.209-1.214-1.7-.2c-6.156-.716-11.227-2.66-15.073-5.776-3.976-3.223-6.812-7.84-8.427-13.723l-.423-1.536Z" transform="translate(3716.387 -1864.778)" fill="#fff"/>
  <path id="Path_516" data-name="Path 516" d="M-3523.195,2050.181a1.536,1.536,0,0,1-1.1-.447,1.549,1.549,0,0,1-.441-1.113,1.519,1.519,0,0,1,1.541-1.51,1.518,1.518,0,0,1,1.529,1.535,1.517,1.517,0,0,1-1.524,1.534Z" transform="translate(3547.477 -2025.474)" fill="#fff" stroke="#fff" stroke-miterlimit="10" stroke-width="1"/>
  <path id="Path_517" data-name="Path 517" d="M-3443.392,2050.181a1.519,1.519,0,0,1-1.5-1.561,1.518,1.518,0,0,1,1.541-1.508,1.518,1.518,0,0,1,1.529,1.537,1.509,1.509,0,0,1-1.549,1.533Z" transform="translate(3477.108 -2025.474)" fill="#fff" stroke="#fff" stroke-miterlimit="10" stroke-width="1"/>
  <path id="Path_518" data-name="Path 518" d="M-3363.508,2050.181a1.53,1.53,0,0,1-1.1-.448,1.542,1.542,0,0,1-.44-1.116,1.518,1.518,0,0,1,1.542-1.505,1.518,1.518,0,0,1,1.527,1.541,1.517,1.517,0,0,1-1.529,1.529Z" transform="translate(3406.74 -2025.474)" fill="#fff" stroke="#fff" stroke-miterlimit="10" stroke-width="1"/>
</svg>
