<svg id="tHuv2m.tif" xmlns="http://www.w3.org/2000/svg" width="7.143" height="13.113" viewBox="0 0 7.143 13.113">
  <g id="Group_19" data-name="Group 19" transform="translate(0)">
    <path id="Path_13" data-name="Path 13" d="M-324.857,891.451a2.983,2.983,0,0,0-.293-.414q-2.641-2.658-5.292-5.307c-.036-.036-.077-.067-.126-.11.05-.052.087-.092.125-.13q2.637-2.642,5.276-5.283a1.074,1.074,0,0,0,.311-.468v-.168a.639.639,0,0,1-.026-.063.591.591,0,0,0-1.006-.265c-.323.315-.639.638-.958.957q-2.461,2.465-4.922,4.929a.6.6,0,0,0-.2.653.719.719,0,0,0,.167.268q2.95,2.963,5.906,5.919a.591.591,0,0,0,1.011-.221.314.314,0,0,1,.027-.046Z" transform="translate(332 -879.058)" fill="#fff"/>
  </g>
</svg>
