<svg xmlns="http://www.w3.org/2000/svg" width="19.67" height="10.714" viewBox="0 0 19.67 10.714">
  <g id="tHuv2m.tif" transform="translate(19.67) rotate(90)">
    <g id="Group_19" data-name="Group 19">
      <path id="Path_13" data-name="Path 13" d="M0,18.591a4.473,4.473,0,0,1,.44-.621Q4.4,13.983,8.378,10.01c.054-.054.115-.1.189-.165-.075-.078-.13-.138-.187-.2Q4.425,5.686.466,1.725A1.612,1.612,0,0,1,0,1.024V.772a.981.981,0,0,0,.039-.1A.887.887,0,0,1,1.548.28c.485.473.958.957,1.437,1.436q3.691,3.7,7.383,7.393a.9.9,0,0,1,.3.979,1.08,1.08,0,0,1-.25.4q-4.425,4.444-8.859,8.878A.887.887,0,0,1,.04,19.037.476.476,0,0,0,0,18.968Z"/>
    </g>
  </g>
</svg>
