<svg xmlns="http://www.w3.org/2000/svg" width="37.467" height="25.566" viewBox="0 0 37.467 25.566">
  <g id="j9nlPn.tif" transform="translate(-401.404 -235.304)">
    <g id="Group_251" data-name="Group 251" transform="translate(401.404 235.304)">
      <path id="Path_1455" data-name="Path 1455" d="M434.108,250.068c-.71.714-1.391,1.395-2.065,2.083a.452.452,0,0,0-.108.262,2.142,2.142,0,0,1-2.041,2.267,1.035,1.035,0,0,0-.107.038,2.162,2.162,0,0,1-.663,1.776,2.206,2.206,0,0,1-1.79.58c-.36,1.742-1.377,2.4-2.977,1.919a2.122,2.122,0,0,0-.08.231,2.051,2.051,0,0,1-2.986,1.4c-.765-.4-1.509-.839-2.246-1.288a.394.394,0,0,0-.579.068c-.2.206-.428.385-.646.574a2.1,2.1,0,0,1-3.478-.926c-.016-.046-.039-.089-.073-.166a2.2,2.2,0,0,1-2.053.012,2.744,2.744,0,0,0-3.013-2.175,2.269,2.269,0,0,1-.8-1.779,2.151,2.151,0,0,1-1.831-3.361l-.83-.636c-.113.179-.208.336-.309.489a.534.534,0,0,1-.778.2c-.985-.546-1.964-1.1-2.948-1.65a.592.592,0,0,1-.275-.74q1.062-4.618,2.124-9.236.432-1.88.862-3.761c.017-.073.037-.145.056-.218.153-.588.5-.711.99-.338.826.63,1.647,1.268,2.469,1.9,1.159.9,2.311,1.8,3.478,2.687.32.242.531.491.338.965,1.234-.09,2.421-.153,3.6-.269,1.021-.1,2.032-.3,3.054-.371a5.983,5.983,0,0,1,1.314.246.831.831,0,0,0,.516-.022,3.078,3.078,0,0,1,2.909-.227c.674.263,1.382.437,2.065.679a3.932,3.932,0,0,0,3.287-.3c-.183-.418.062-.655.371-.893q2.949-2.267,5.885-4.55c.548-.424.915-.3,1.071.377q1.513,6.571,3.019,13.144a.63.63,0,0,1-.349.778c-.933.51-1.855,1.04-2.785,1.555-.437.242-.658.177-.931-.257C434.562,250.8,434.347,250.452,434.108,250.068Zm-18.711,2.8a2.242,2.242,0,0,1,2.273,2.268,2.134,2.134,0,0,1,1.852,3.265c.769.44,1.509.884,2.271,1.286a1.123,1.123,0,0,0,.685.082.926.926,0,0,0,.774-.814.981.981,0,0,0-.469-1.026c-1.233-.856-2.468-1.71-3.7-2.573-.325-.228-.388-.509-.214-.769s.479-.315.819-.088c.614.409,1.221.83,1.827,1.25,1.018.706,2.029,1.422,3.051,2.121a1.017,1.017,0,1,0,1.151-1.666c-1.571-1.115-3.146-2.225-4.714-3.344-.157-.112-.361-.265-.387-.424a.752.752,0,0,1,.191-.585c.214-.2.48-.1.716.064q2.612,1.864,5.234,3.714a1.943,1.943,0,0,0,.7.342,1.039,1.039,0,0,0,1.178-.657,1.054,1.054,0,0,0-.441-1.309c-1.175-.852-2.356-1.7-3.533-2.545q-1.142-.823-2.28-1.652c-.361-.263-.437-.547-.232-.822s.484-.281.858-.024c.165.113.332.224.494.341l5.633,4.061a1.066,1.066,0,1,0,1.267-1.711c-2.534-2.067-5.077-4.122-7.6-6.205-.369-.305-.661-.411-1.069-.124a2.4,2.4,0,0,1-.585.249,5.838,5.838,0,0,1-5.1-.294,1.6,1.6,0,0,1-.557-.535,1.17,1.17,0,0,1,.561-1.671c.831-.448,1.667-.885,2.517-1.335-.049-.04-.067-.068-.083-.067-.15.011-.3.029-.449.042-2.194.193-4.388.393-6.583.568a.642.642,0,0,0-.592.333c-1.359,2.234-2.735,4.458-4.105,6.686-.149.241-.3.484-.452.74.313.239.591.473.893.67a.371.371,0,0,0,.34-.036c.391-.313.75-.666,1.142-.976a2.1,2.1,0,0,1,3.286.9l.12.306A2.22,2.22,0,0,1,415.4,252.87Zm.908-8.7c.152.11.242.189.345.247a4.265,4.265,0,0,0,2.381.541,6.639,6.639,0,0,0,2.811-.858c.554-.3.592-.293,1.065.094l.962.783,7.566,6.159,2.072-2.06-4.41-7.165c-.234.093-.443.172-.647.259a4.751,4.751,0,0,1-3.516.13c-.8-.275-1.622-.507-2.424-.79a1.8,1.8,0,0,0-1.548.138c-1.418.768-2.847,1.517-4.271,2.276C416.577,243.99,416.471,244.068,416.3,244.174ZM404.774,250.5l5.84-9.492-5.241-4.054a.67.67,0,0,0-.053.1q-1.373,5.983-2.735,11.969a.4.4,0,0,0,.165.331C403.405,249.743,404.074,250.108,404.774,250.5Zm30.731-.189c.678-.38,1.325-.754,1.985-1.1.22-.117.248-.235.193-.47q-1.126-4.851-2.229-9.708c-.171-.745-.345-1.489-.528-2.278l-5.265,4.072Zm-21.124,2.524a1.292,1.292,0,0,0-.729-1.057,1.022,1.022,0,0,0-1.182.194q-1.3,1.14-2.588,2.283a1.083,1.083,0,1,0,1.4,1.65c.9-.775,1.794-1.558,2.667-2.364A2.986,2.986,0,0,0,414.382,252.834Zm-2.235,4.043a1.121,1.121,0,0,0,.582,1.093.955.955,0,0,0,1.123-.115q1.214-1.035,2.4-2.107a1.026,1.026,0,0,0,.039-1.452,1.006,1.006,0,0,0-1.419-.108c-.809.69-1.609,1.392-2.387,2.116A1.937,1.937,0,0,0,412.146,256.877Zm-4.955-4.135a1.225,1.225,0,0,0,.669,1.009.979.979,0,0,0,1.152-.155c.532-.457,1.053-.927,1.578-1.391a1.058,1.058,0,1,0-1.4-1.57c-.528.461-1.069.909-1.571,1.4A3.219,3.219,0,0,0,407.191,252.742Zm9.2,6.816a2.611,2.611,0,0,0,.6-.279c.513-.419,1.013-.857,1.494-1.313a1.032,1.032,0,0,0-1.364-1.543c-.522.428-1.026.879-1.518,1.342a.936.936,0,0,0-.206,1.1A1.171,1.171,0,0,0,416.395,259.558Z" transform="translate(-401.404 -235.304)" fill="#07388a"/>
    </g>
  </g>
</svg>
