<svg xmlns="http://www.w3.org/2000/svg" width="59.474" height="59.439" viewBox="0 0 59.474 59.439">
  <g id="Group_207" data-name="Group 207" transform="translate(0.25 0.25)">
    <path id="Path_519" data-name="Path 519" d="M-1771.906,1608.178a37.434,37.434,0,0,1-4.261-.252,27.274,27.274,0,0,1-13.3-5.394,29.2,29.2,0,0,1-11.609-18.56c-.135-.718-.235-1.467-.331-2.191-.044-.328-.088-.655-.135-.982v-4.151c.027-.2.052-.407.077-.611.058-.469.118-.953.187-1.422a29.015,29.015,0,0,1,5.393-13.267,29.219,29.219,0,0,1,18.592-11.644c.716-.134,1.464-.234,2.187-.332.328-.043.655-.088.981-.135h4.149c.292.039.584.075.875.111.675.083,1.314.162,1.952.275a28.879,28.879,0,0,1,16.523,8.852,28.99,28.99,0,0,1,7.786,24.31,27.039,27.039,0,0,1-5.416,13.345,31.389,31.389,0,0,1-10.564,9.042A28.588,28.588,0,0,1-1771.906,1608.178Zm-.185-56.091a26.4,26.4,0,0,0-18.793,7.82,26.47,26.47,0,0,0-7.807,18.823,26.446,26.446,0,0,0,7.795,18.807,26.538,26.538,0,0,0,18.814,7.832h.076a26.385,26.385,0,0,0,18.788-7.822,26.465,26.465,0,0,0,7.806-18.822,26.46,26.46,0,0,0-7.8-18.81,26.523,26.523,0,0,0-18.816-7.826Z" transform="translate(1801.541 -1549.239)" fill="#fff" stroke="#fff" stroke-width="0.5"/>
    <path id="Path_520" data-name="Path 520" d="M-1564.582,1781.157a1.394,1.394,0,0,1-1.405-1.55q0-7.518,0-15.035a1.462,1.462,0,0,1,1.415-1.593h.017a1.448,1.448,0,0,1,1.412,1.577q0,2.628,0,5.257v4.5q0,2.636,0,5.273a1.4,1.4,0,0,1-1.429,1.568Z" transform="translate(1594.054 -1737.512)" fill="#fff" stroke="#fff" stroke-width="0.5"/>
    <path id="Path_521" data-name="Path 521" d="M-1570.719,1689.4a2.221,2.221,0,0,1-1.584-.659,2.31,2.31,0,0,1-.662-1.656,2.222,2.222,0,0,1,2.267-2.2h.021a2.214,2.214,0,0,1,1.58.655,2.315,2.315,0,0,1,.642,1.668,2.248,2.248,0,0,1-2.257,2.194Z" transform="translate(1600.2 -1668.716)" fill="#fff" stroke="#fff" stroke-width="0.5"/>
  </g>
</svg>
