<svg id="DkVBf0.tif" xmlns="http://www.w3.org/2000/svg" width="22.032" height="22.01" viewBox="0 0 22.032 22.01">
  <g id="Group_36" data-name="Group 36" transform="translate(0 0)">
    <path id="Path_479" data-name="Path 479" d="M-589.332,311.526h-4.651l-.641-.045a25.741,25.741,0,0,1-2.889-.233,5.826,5.826,0,0,1-4.466-3.524,8.281,8.281,0,0,1-.647-3.247c-.037-2.2-.042-4.406-.036-6.609a14.512,14.512,0,0,1,.286-3.358,5.994,5.994,0,0,1,4.683-4.735,11.411,11.411,0,0,1,2.651-.238q3.379-.042,6.758,0a13.555,13.555,0,0,1,2.5.216,5.853,5.853,0,0,1,4.508,3.682,9.524,9.524,0,0,1,.6,3.281c.013.329.03.657.045.986v5.6c-.012.142-.033.284-.034.426a12.27,12.27,0,0,1-.273,2.754,5.906,5.906,0,0,1-4.906,4.773,23.4,23.4,0,0,1-2.824.227C-588.891,311.5-589.111,311.511-589.332,311.526Zm-2.318-1.691c0-.025,0-.051,0-.076.962,0,1.924.022,2.885-.007a18.71,18.71,0,0,0,2.53-.177,4.16,4.16,0,0,0,3.374-2.7,7.7,7.7,0,0,0,.456-2.807q.029-3.563,0-7.127a10.275,10.275,0,0,0-.216-1.984,4.159,4.159,0,0,0-3.483-3.5,16.338,16.338,0,0,0-2.806-.208c-1.836-.03-3.674-.027-5.511,0a17.92,17.92,0,0,0-2.659.179,4.148,4.148,0,0,0-3.374,2.7,7.975,7.975,0,0,0-.459,2.915q-.022,3.412,0,6.825a12.868,12.868,0,0,0,.165,1.9,4.392,4.392,0,0,0,4.32,3.9C-594.836,309.746-593.243,309.78-591.651,309.835Z" transform="translate(602.665 -289.516)" fill="#fff"/>
    <path id="Path_480" data-name="Path 480" d="M-467.935,430.108a5.378,5.378,0,0,1-5.38-5.4,5.378,5.378,0,0,1,5.383-5.37,5.379,5.379,0,0,1,5.382,5.394A5.381,5.381,0,0,1-467.935,430.108Zm0-1.721a3.681,3.681,0,0,0,3.665-3.652,3.68,3.68,0,0,0-3.646-3.67,3.68,3.68,0,0,0-3.676,3.662A3.681,3.681,0,0,0-467.937,428.387Z" transform="translate(478.897 -413.741)" fill="#fff"/>
    <path id="Path_481" data-name="Path 481" d="M-239.769,380.71a1.28,1.28,0,0,1,1.3-1.288,1.283,1.283,0,0,1,1.283,1.3A1.284,1.284,0,0,1-238.476,382,1.281,1.281,0,0,1-239.769,380.71Z" transform="translate(255.428 -375.542)" fill="#fff"/>
  </g>
</svg>
