<svg xmlns="http://www.w3.org/2000/svg" width="28.433" height="30.045" viewBox="0 0 28.433 30.045">
  <g id="_7Nejej.tif" data-name="7Nejej.tif" transform="translate(-1219.772 -1944.66)">
    <g id="Group_85" data-name="Group 85" transform="translate(1219.772 1944.66)">
      <path id="Path_512" data-name="Path 512" d="M1222.521,1974.7c-.139-.042-.278-.085-.418-.125a3.158,3.158,0,0,1-.208-6.026c.08-.029.158-.063.246-.1v-5.707a3.192,3.192,0,0,1,0-6.138v-5.6a10.79,10.79,0,0,1-1.428-.971,3.1,3.1,0,0,1-.473-3.868,3.175,3.175,0,0,1,3.663-1.366,3.129,3.129,0,0,1,2.182,3.236,3.038,3.038,0,0,1-2.047,2.735.4.4,0,0,0-.306.45q.015,2.535,0,5.07a.377.377,0,0,0,.286.426,3.15,3.15,0,0,1,0,5.9.376.376,0,0,0-.287.426c.009,1.7.007,3.405,0,5.107,0,.187.026.3.234.386a3.158,3.158,0,0,1-.5,6.1.544.544,0,0,0-.134.058Zm.417-25.308a1.563,1.563,0,1,0-.014-3.126,1.563,1.563,0,0,0,.014,3.126Zm-.03,11.842a1.563,1.563,0,1,0,.085-3.125,1.563,1.563,0,1,0-.085,3.125Zm.027,11.844a1.563,1.563,0,1,0,.032-3.125,1.563,1.563,0,1,0-.032,3.125Z" transform="translate(-1219.771 -1944.66)" fill="#07388a"/>
      <path id="Path_513" data-name="Path 513" d="M1356.553,1956.436a1.058,1.058,0,0,1-1.068.555q-8.8-.013-17.6-.006c-.686,0-1.073-.286-1.078-.789s.378-.794,1.063-.794q8.8,0,17.6-.01a1.12,1.12,0,0,1,1.084.526Z" transform="translate(-1328.12 -1954.595)" fill="#07388a"/>
      <path id="Path_514" data-name="Path 514" d="M1356.553,2116.043a1.058,1.058,0,0,1-1.068.555q-8.8-.013-17.6-.006c-.686,0-1.073-.286-1.078-.789s.378-.794,1.063-.794q8.8,0,17.6-.01a1.12,1.12,0,0,1,1.084.526Z" transform="translate(-1328.12 -2102.358)" fill="#07388a"/>
      <path id="Path_515" data-name="Path 515" d="M1356.553,2275.65a1.058,1.058,0,0,1-1.068.555q-8.8-.013-17.6-.006c-.686,0-1.073-.286-1.078-.789s.378-.794,1.063-.794q8.8,0,17.6-.01a1.12,1.12,0,0,1,1.084.526Z" transform="translate(-1328.12 -2250.121)" fill="#07388a"/>
      <path id="Path_516" data-name="Path 516" d="M1342.717,1999.557q-2.495,0-4.99,0a.8.8,0,1,1-.046-1.579q5.045-.01,10.091,0a.778.778,0,0,1,.862.641.757.757,0,0,1-.492.885,1.357,1.357,0,0,1-.434.052Q1345.211,1999.56,1342.717,1999.557Z" transform="translate(-1328.115 -1994.016)" fill="#07388a"/>
      <path id="Path_517" data-name="Path 517" d="M1342.813,2159.17q-2.532,0-5.064,0a.76.76,0,0,1-.8-.579.748.748,0,0,1,.328-.863,1.128,1.128,0,0,1,.526-.134q5.045-.011,10.09,0a.793.793,0,1,1-.018,1.579Q1345.344,2159.173,1342.813,2159.17Z" transform="translate(-1328.225 -2141.785)" fill="#07388a"/>
      <path id="Path_518" data-name="Path 518" d="M1342.858,2318.777q-2.55,0-5.1,0a.76.76,0,0,1-.8-.572.742.742,0,0,1,.32-.865,1.107,1.107,0,0,1,.524-.139q5.045-.012,10.091,0a.779.779,0,0,1,.872.793c0,.488-.343.786-.912.786Q1345.353,2318.778,1342.858,2318.777Z" transform="translate(-1328.226 -2289.548)" fill="#07388a"/>
    </g>
  </g>
</svg>
