<svg xmlns="http://www.w3.org/2000/svg" width="17.219" height="17.219" viewBox="0 0 17.219 17.219">
  <g id="E25grW.tif" transform="translate(-79.5 -1133.5)">
    <g id="Group_18" data-name="Group 18" transform="translate(79.5 1133.5)">
      <g id="Group_17" data-name="Group 17" transform="translate(0 0)">
        <g id="Group_15" data-name="Group 15" transform="translate(0.184 0.184)">
          <path id="Path_9" data-name="Path 9" d="M95.783,1142h1.028c.162.022.324.046.486.067a8.161,8.161,0,0,1,5.386,2.948,8.012,8.012,0,0,1,1.772,3.812c.056.317.093.638.139.957v1.028a.719.719,0,0,0-.031.121,8.305,8.305,0,0,1-6.76,7.518c-.328.062-.661.1-.992.145H95.783c-.053-.011-.1-.026-.158-.033-.326-.046-.657-.071-.978-.139a8.205,8.205,0,0,1-5.171-3.415,7.9,7.9,0,0,1-1.335-3.222c-.056-.323-.1-.65-.142-.975v-1.028c.015-.114.03-.228.043-.342a8.216,8.216,0,0,1,2.363-4.974,8.122,8.122,0,0,1,4.4-2.325C95.131,1142.084,95.458,1142.047,95.783,1142Zm8.224,8a.8.8,0,0,0,.007-.1,7.677,7.677,0,0,0-1.76-4.534c-.076-.094-.135-.06-.218-.023q-.844.377-1.693.744c-.1.045-.213.077-.323.117.136.3.267.584.389.869a.289.289,0,0,1-.129.418c-.161.065-.3-.008-.39-.2-.118-.255-.243-.507-.353-.765-.051-.121-.11-.137-.237-.109-.53.117-1.062.229-1.6.318-.365.061-.737.08-1.112.119V1150h3.986c-.047-.312-.091-.607-.134-.9-.033-.23.044-.365.221-.391s.3.079.333.3c.054.329.1.66.153.992Zm-8-3.152a11.987,11.987,0,0,1-2.923-.417,9.365,9.365,0,0,0-1.087,3.58h.22c.471,0,.942,0,1.413,0,.218,0,.348.121.339.3s-.134.268-.35.269c-.483,0-.966,0-1.449,0-.064,0-.128.006-.2.01a7.762,7.762,0,0,0,.648,3.083c.058.135.116.154.259.13.83-.14,1.663-.267,2.5-.391.209-.031.421-.035.632-.051v-2.782c-.26,0-.509.005-.758,0-.224-.006-.357-.167-.3-.359a.3.3,0,0,1,.327-.208H96Zm0,7.092a13.272,13.272,0,0,0-3.049.443c.147.24.294.479.44.717.11.181.089.34-.056.434a.284.284,0,0,1-.417-.13c-.159-.253-.314-.51-.459-.771-.058-.1-.11-.138-.229-.1-.581.2-1.165.4-1.748.6a1.548,1.548,0,0,0-.154.074,7.815,7.815,0,0,0,4.795,2.728c-.084-.079-.132-.122-.177-.168-.292-.3-.592-.584-.87-.893a.36.36,0,0,1-.055-.31.328.328,0,0,1,.25-.161.439.439,0,0,1,.257.146c.439.416.872.839,1.308,1.258.045.043.1.079.165.133Zm-5.631-8.609a7.653,7.653,0,0,0-1.8,4.665h2.871a10.047,10.047,0,0,1,1.084-3.69Zm6.221,5.257v2.764a14.523,14.523,0,0,1,3.331.381,7.587,7.587,0,0,0,.666-3.145Zm-8.021,0a7.671,7.671,0,0,0,1.385,4.126l2.171-.756a8.322,8.322,0,0,1-.713-3.37Zm15.474.005h-2.891a8.127,8.127,0,0,1-.657,3.249c.666.273,1.317.532,1.961.808.134.057.194.048.275-.076a7.613,7.613,0,0,0,1.116-2.651C103.941,1151.493,103.982,1151.05,104.048,1150.6Zm-7.46,7.341a12.614,12.614,0,0,0,3.085-3.679,12.678,12.678,0,0,0-3.085-.333Zm3.666-3.564a13.069,13.069,0,0,1-2.766,3.549,7.709,7.709,0,0,0,4.817-2.76ZM96,1142.669a13.689,13.689,0,0,0-2.62,3.241,8.931,8.931,0,0,0,2.62.35Zm-5.209,2.2a10.465,10.465,0,0,0,1.83.834.206.206,0,0,0,.3-.109,14.054,14.054,0,0,1,1.6-2.228c.2-.233.413-.461.648-.723A7.782,7.782,0,0,0,90.794,1144.872Zm6.641-2.2a16.421,16.421,0,0,1,2.317,3.064l2.05-.861A7.632,7.632,0,0,0,97.435,1142.669Zm-.842,0v3.577a8.8,8.8,0,0,0,2.57-.4A14.838,14.838,0,0,0,96.593,1142.672Z" transform="translate(-87.872 -1141.871)" fill="#fff"/>
          <path id="Path_10" data-name="Path 10" d="M93.449,1155.352H92.4l-.013,0-.052-.012c-.034-.008-.066-.016-.1-.02-.106-.015-.216-.028-.321-.041-.219-.026-.445-.053-.666-.1A8.358,8.358,0,0,1,86,1151.71a8.048,8.048,0,0,1-1.356-3.274c-.039-.224-.07-.452-.1-.672-.014-.1-.028-.2-.042-.306V1146.4l.014-.11c.01-.077.02-.154.029-.231a8.376,8.376,0,0,1,2.4-5.05,8.277,8.277,0,0,1,4.47-2.36c.224-.041.452-.071.673-.1l.307-.042h1.064l.155.021.33.045a8.315,8.315,0,0,1,5.468,2.993,8.165,8.165,0,0,1,1.8,3.872c.039.22.069.443.1.66.014.1.027.2.042.3v1.063l0,.016c0,.015-.008.03-.013.044a.3.3,0,0,0-.014.054,8.433,8.433,0,0,1-6.865,7.634c-.228.043-.46.074-.685.1l-.312.042Zm-1.023-.257h1l.306-.041c.221-.029.45-.059.671-.1a8.177,8.177,0,0,0,6.656-7.4.486.486,0,0,1,.025-.111l.005-.018v-1c-.014-.1-.027-.2-.041-.294-.029-.214-.059-.435-.1-.65a7.912,7.912,0,0,0-1.744-3.752,8.065,8.065,0,0,0-5.3-2.9l-.333-.045-.146-.02h-1.01l-.3.041c-.218.029-.443.06-.661.1a8.025,8.025,0,0,0-4.334,2.289,8.124,8.124,0,0,0-2.326,4.9c-.009.078-.019.156-.03.234l-.013.1v1.01c.014.1.028.2.041.3.03.218.06.444.1.663a7.794,7.794,0,0,0,1.313,3.17,8.109,8.109,0,0,0,5.092,3.363c.21.045.43.071.643.1.107.013.218.026.327.041.042.006.081.015.119.024Zm.662-.25v-4.417l.126,0a12.746,12.746,0,0,1,3.116.336l.163.037-.079.148a12.659,12.659,0,0,1-3.115,3.717Zm.257-4.163v3.6a12.294,12.294,0,0,0,2.763-3.31A12.413,12.413,0,0,0,93.345,1150.681Zm-.584,4.161-.209-.167-.062-.048a1.3,1.3,0,0,1-.112-.093l-.436-.421c-.285-.275-.579-.56-.872-.837-.116-.11-.163-.111-.163-.111h0a.225.225,0,0,0-.135.079.245.245,0,0,0,.031.178c.206.229.429.451.644.666l.221.222c.028.028.057.055.1.093l.077.072.309.292-.419-.072a7.923,7.923,0,0,1-4.871-2.771l-.108-.126.149-.073.054-.028a.81.81,0,0,1,.115-.053l.605-.207c.375-.127.762-.259,1.142-.393a.286.286,0,0,1,.384.155c.129.232.278.482.455.765a.237.237,0,0,0,.133.115.137.137,0,0,0,.105-.025c.031-.02.125-.081.016-.26l-.3-.5-.211-.344.131-.061a13.315,13.315,0,0,1,3.109-.455l.123.006Zm-5.593-2.957a7.615,7.615,0,0,0,4.188,2.476l-.089-.089c-.218-.218-.443-.443-.654-.676a.488.488,0,0,1-.08-.442.453.453,0,0,1,.366-.244.505.505,0,0,1,.35.181c.293.278.588.563.873.838l.383.37v-3.6a15.3,15.3,0,0,0-2.728.384l.052.085.3.5a.418.418,0,0,1-.1.609.39.39,0,0,1-.3.06.48.48,0,0,1-.3-.229c-.18-.287-.331-.541-.462-.777a.206.206,0,0,0-.032-.047.157.157,0,0,0-.042.01c-.381.134-.769.266-1.144.394Zm6.557,2.859.3-.286a12.867,12.867,0,0,0,2.74-3.514l.053-.1,2.327.9-.117.138a7.8,7.8,0,0,1-4.895,2.8Zm3.219-3.581a12.8,12.8,0,0,1-2.43,3.183,7.514,7.514,0,0,0,4.2-2.5Zm-10.407.336-.056-.08a7.842,7.842,0,0,1-1.408-4.194l-.006-.134h3.1v.128a8.225,8.225,0,0,0,.7,3.318l.057.128Zm-1.2-4.151a7.576,7.576,0,0,0,1.3,3.844l1.947-.679a8.475,8.475,0,0,1-.667-3.166Zm13.88,4.1a.464.464,0,0,1-.179-.045c-.473-.2-.94-.392-1.435-.593l-.524-.214-.12-.049.051-.12a8.013,8.013,0,0,0,.647-3.2v-.13h3.169l-.021.147c-.02.142-.039.285-.057.423-.039.3-.079.613-.141.915a7.777,7.777,0,0,1-1.134,2.7A.3.3,0,0,1,99.218,1151.445ZM97.3,1150.4l.4.165c.5.2.964.392,1.439.6a.21.21,0,0,0,.076.024.237.237,0,0,0,.041-.052,7.522,7.522,0,0,0,1.1-2.607c.06-.292.1-.585.138-.9.012-.092.024-.185.037-.28H97.914A8.261,8.261,0,0,1,97.3,1150.4Zm-7.88.166a.3.3,0,0,1-.291-.216,7.851,7.851,0,0,1-.658-3.133v-.122l.122-.006.066,0c.048,0,.093-.006.14-.006h.572c.292,0,.584,0,.877,0,.214,0,.22-.111.222-.148a.135.135,0,0,0-.033-.1.245.245,0,0,0-.178-.058c-.334,0-.673,0-1,0h-.769l.011-.139A9.507,9.507,0,0,1,89.6,1143l.048-.092.1.027a11.912,11.912,0,0,0,2.892.413l.126,0v3.418H91.9c-.156,0-.186.057-.2.115a.142.142,0,0,0,.016.125.208.208,0,0,0,.165.07c.171,0,.34,0,.518,0h.365v3.029l-.119.009-.2.013c-.146.009-.284.017-.422.037-.747.111-1.627.244-2.494.39A.642.642,0,0,1,89.416,1150.57Zm-.691-3.229a7.6,7.6,0,0,0,.636,2.911c.022.051.034.059.035.059a.2.2,0,0,0,.085-.005c.869-.146,1.751-.28,2.5-.391.149-.022.3-.031.445-.039l.078,0v-2.533H92.4c-.181,0-.352,0-.527,0a.459.459,0,0,1-.366-.175.393.393,0,0,1-.055-.348.415.415,0,0,1,.45-.3H92.5V1143.6a12.17,12.17,0,0,1-2.727-.392,9.269,9.269,0,0,0-1.013,3.3h.489c.329,0,.669,0,1,0a.488.488,0,0,1,.364.139.388.388,0,0,1,.1.294.423.423,0,0,1-.477.391c-.293,0-.585,0-.878,0H88.8Zm7.9,3.172-.1-.025a14.291,14.291,0,0,0-3.3-.378h-.128v-3.021h4.252v.127a7.682,7.682,0,0,1-.676,3.2Zm-3.277-.659a14.523,14.523,0,0,1,3.126.359,7.417,7.417,0,0,0,.613-2.867H93.351Zm7.4-3.1H97.67l-.017-.109q-.023-.15-.046-.3c-.034-.227-.07-.462-.107-.691s-.142-.205-.187-.2-.145.022-.113.246c.03.2.061.41.092.62l.064.429H93.092v-3.387l.115-.012c.117-.012.235-.022.35-.032.261-.023.507-.044.754-.085.547-.091,1.088-.206,1.591-.317a.292.292,0,0,1,.383.184c.072.17.153.341.231.506.04.085.08.17.12.255.089.193.187.153.225.138a.131.131,0,0,0,.077-.071.237.237,0,0,0-.017-.178c-.085-.2-.173-.392-.267-.6l-.122-.269-.057-.127.131-.047.107-.037c.073-.025.142-.048.208-.077.683-.3,1.2-.526,1.691-.743l.012-.005a.265.265,0,0,1,.359.065,7.839,7.839,0,0,1,1.788,4.608.476.476,0,0,1,0,.082c0,.01,0,.021,0,.032Zm-2.864-.257h2.622a7.587,7.587,0,0,0-1.729-4.422l-.009-.011-.044.019-.013.006c-.488.218-1.01.448-1.694.745-.066.029-.133.052-.2.075l.063.14c.094.207.183.4.269.6a.48.48,0,0,1,.019.377.384.384,0,0,1-.218.211.419.419,0,0,1-.555-.269c-.039-.085-.079-.169-.119-.253-.079-.167-.161-.341-.235-.515a.162.162,0,0,0-.023-.042.233.233,0,0,0-.068.008c-.506.112-1.051.228-1.6.32-.257.043-.52.066-.774.088l-.23.021v2.9h3.708l-.02-.134c-.032-.211-.062-.416-.092-.622-.044-.3.079-.5.329-.537.3-.044.442.183.479.411s.073.467.108.694Zm-9.7.253H85.069l.006-.134a7.8,7.8,0,0,1,1.828-4.742l.063-.076,2.367,1.07-.06.12a9.838,9.838,0,0,0-1.071,3.643Zm-2.854-.257h2.618a10.068,10.068,0,0,1,1.027-3.5l-1.945-.879A7.528,7.528,0,0,0,85.339,1146.5Zm7.071-3.469a9.615,9.615,0,0,1-2.452-.375l-.118-.055.056-.117a13.694,13.694,0,0,1,2.659-3.288l.205-.154V1143l-.107.018A1.574,1.574,0,0,1,92.41,1143.03Zm-2.217-.562a10.459,10.459,0,0,0,2.311.3v-3.2A14.937,14.937,0,0,0,90.192,1142.468Zm3.2.55A1.056,1.056,0,0,1,93.2,1143l-.1-.021V1139l.217.2a14.9,14.9,0,0,1,2.592,3.206l.07.116-.119.064A9.313,9.313,0,0,1,93.39,1143.017Zm-.04-.256a10.661,10.661,0,0,0,2.253-.345,14.587,14.587,0,0,0-2.253-2.814Zm2.976-.238-.057-.1a16.255,16.255,0,0,0-2.3-3.04l-.255-.269.367.053a7.734,7.734,0,0,1,4.438,2.238l.138.135Zm-1.911-3.036a16.346,16.346,0,0,1,2.019,2.712l1.766-.742A7.45,7.45,0,0,0,94.415,1139.487Zm-5.038,3a.5.5,0,0,1-.168-.034,10.463,10.463,0,0,1-1.852-.844l-.143-.085.118-.117a7.892,7.892,0,0,1,4.454-2.262l.358-.057-.242.27-.22.244c-.149.165-.289.32-.427.477a14,14,0,0,0-1.59,2.208A.326.326,0,0,1,89.377,1142.49Zm-1.743-1.015a10.554,10.554,0,0,0,1.662.74c.093.033.1.031.147-.052a14.257,14.257,0,0,1,1.619-2.249c.129-.147.259-.292.4-.445A7.591,7.591,0,0,0,87.634,1141.475Z" transform="translate(-84.5 -1138.5)" fill="#fff"/>
        </g>
        <g id="Group_16" data-name="Group 16">
          <path id="Path_11" data-name="Path 11" d="M92.008,1153.962H90.947l-.019,0-.053-.012c-.033-.008-.064-.015-.092-.019-.106-.015-.215-.028-.32-.04-.22-.026-.447-.053-.671-.1a8.412,8.412,0,0,1-5.283-3.489,8.1,8.1,0,0,1-1.365-3.3c-.039-.225-.07-.454-.1-.675-.014-.1-.028-.2-.042-.306l0-.013v-1.064l.014-.11c.01-.077.02-.154.029-.23a8.429,8.429,0,0,1,2.415-5.082,8.331,8.331,0,0,1,4.5-2.376c.225-.041.454-.072.675-.1l.306-.042.013,0,1.066,0,.155.022.33.045a8.369,8.369,0,0,1,5.5,3.012,8.22,8.22,0,0,1,1.812,3.9c.039.221.069.445.1.662.014.1.027.2.041.3l0,.013v1.065l-.006.023c0,.016-.009.031-.014.047a.328.328,0,0,0-.012.042,8.488,8.488,0,0,1-6.909,7.684c-.23.043-.463.074-.688.1l-.312.042Zm-1.021-.367h.995l.3-.041c.221-.029.449-.059.668-.1a8.121,8.121,0,0,0,6.612-7.352.544.544,0,0,1,.027-.123l0-.009v-.989c-.014-.1-.027-.194-.04-.291-.029-.213-.059-.434-.1-.648a7.857,7.857,0,0,0-1.732-3.726,8.013,8.013,0,0,0-5.269-2.884l-.333-.045-.142-.02h-1l-.3.041c-.217.029-.442.06-.659.1a7.97,7.97,0,0,0-4.3,2.273,8.07,8.07,0,0,0-2.311,4.866c-.009.078-.019.157-.03.235l-.013.1v1c.014.1.028.2.041.3.03.218.06.443.1.661a7.739,7.739,0,0,0,1.3,3.147,8.055,8.055,0,0,0,5.059,3.341c.207.044.416.069.638.1.107.013.218.026.328.042.044.006.085.016.124.025Zm.6-.076v-4.59l.18,0a12.816,12.816,0,0,1,3.13.337l.233.053-.112.212a12.712,12.712,0,0,1-3.128,3.733Zm.367-4.228v3.427a12.192,12.192,0,0,0,2.623-3.15A12.361,12.361,0,0,0,91.955,1149.291Zm-.584,4.221-.3-.238-.061-.047a1.3,1.3,0,0,1-.117-.1l-.436-.421c-.285-.275-.579-.56-.871-.836a.434.434,0,0,0-.128-.1.206.206,0,0,0-.082.047.213.213,0,0,0,.022.118c.2.227.426.449.642.663l.222.222c.027.027.056.054.1.091l.078.073.441.417-.6-.1a7.976,7.976,0,0,1-4.9-2.79l-.154-.18.213-.1.053-.027a.874.874,0,0,1,.122-.056l.605-.207c.375-.127.762-.259,1.142-.393a.34.34,0,0,1,.45.18c.128.231.277.48.454.763a.19.19,0,0,0,.1.091.078.078,0,0,0,.063-.017c.028-.018.08-.052,0-.185l-.3-.5-.243-.4.188-.087a13.141,13.141,0,0,1,3.134-.46l.175.008Zm-5.552-3.046a7.539,7.539,0,0,0,3.916,2.353c-.2-.2-.412-.413-.609-.631a.542.542,0,0,1-.091-.5.508.508,0,0,1,.415-.279.588.588,0,0,1,.39.2c.294.278.589.563.874.839l.29.28v-3.416a16.387,16.387,0,0,0-2.588.362l.014.022.3.5a.469.469,0,0,1-.113.684.443.443,0,0,1-.342.068.533.533,0,0,1-.33-.254c-.181-.288-.333-.543-.464-.78l-.007-.012h0c-.381.134-.769.266-1.145.394Zm3.555,1.364h0Zm2.737,1.553.433-.409a12.817,12.817,0,0,0,2.729-3.5l.075-.147,2.446.942-.167.2a7.859,7.859,0,0,1-4.928,2.822Zm3.413-3.595a12.724,12.724,0,0,1-2.283,3.019,7.449,7.449,0,0,0,3.936-2.382Zm-10.454.333-.08-.115a7.9,7.9,0,0,1-1.417-4.223l-.008-.192h3.217v.183a8.17,8.17,0,0,0,.7,3.3l.081.182Zm-1.119-4.162a7.517,7.517,0,0,0,1.263,3.723l1.852-.645a8.526,8.526,0,0,1-.648-3.078Zm13.821,4.1a.518.518,0,0,1-.2-.049c-.473-.2-.939-.392-1.434-.593l-.524-.214-.172-.07.072-.171a7.958,7.958,0,0,0,.643-3.176v-.185h3.288l-.03.21c-.02.141-.039.284-.057.422-.039.3-.079.615-.142.919a7.831,7.831,0,0,1-1.142,2.715A.354.354,0,0,1,97.773,1150.055Zm-1.85-1.126.354.144c.5.2.964.392,1.44.6l.035.014.015-.021a7.468,7.468,0,0,0,1.089-2.588c.06-.29.1-.582.137-.892.009-.072.019-.144.028-.218h-2.5A8.314,8.314,0,0,1,95.923,1148.929Zm-7.951.252a.35.35,0,0,1-.342-.25,7.9,7.9,0,0,1-.662-3.155v-.175l.175-.009.065,0c.046,0,.094-.006.143-.006h.572c.292,0,.584,0,.876,0,.162,0,.166-.065.167-.1a.078.078,0,0,0-.018-.064.2.2,0,0,0-.138-.041c-.334,0-.673,0-1,0h-.829l.016-.2a9.561,9.561,0,0,1,1.107-3.649l.068-.132.143.039a11.863,11.863,0,0,0,2.878.411l.18,0v3.527h-.92c-.128,0-.139.038-.149.075a.086.086,0,0,0,.008.077.157.157,0,0,0,.122.047c.17,0,.338,0,.516,0h.42v3.135l-.17.013-.2.013c-.145.008-.282.016-.417.036-.746.111-1.626.244-2.492.39A.7.7,0,0,1,87.971,1149.18Zm-.635-3.231a7.548,7.548,0,0,0,.63,2.836c.005.012.01.021.013.028l.046-.006c.869-.147,1.751-.28,2.5-.391.151-.023.3-.031.449-.04H91v-2.426h-.051c-.181,0-.353,0-.529,0a.514.514,0,0,1-.409-.2.446.446,0,0,1-.064-.4.47.47,0,0,1,.5-.341H91v-2.8a12.232,12.232,0,0,1-2.643-.381,9.222,9.222,0,0,0-.982,3.181h.428c.329,0,.669,0,1,0a.541.541,0,0,1,.4.156.447.447,0,0,1,.117.335.479.479,0,0,1-.532.443c-.293,0-.585,0-.878,0h-.586Zm7.879,3.183-.149-.036a14.25,14.25,0,0,0-3.289-.376h-.183v-3.131h4.362l0,.182a7.736,7.736,0,0,1-.681,3.22Zm-3.254-.777a14.574,14.574,0,0,1,3.038.349,7.359,7.359,0,0,0,.59-2.748H91.961Zm7.4-2.987H96.177l-.024-.156-.046-.3c-.034-.227-.07-.461-.107-.691-.027-.168-.086-.159-.125-.153s-.091.014-.066.183c.03.2.061.41.092.62l.073.492H91.592v-3.492l.165-.017c.118-.012.236-.022.35-.032.26-.023.505-.044.75-.085.546-.091,1.086-.206,1.588-.317a.346.346,0,0,1,.445.216c.072.169.153.339.23.5.04.085.081.17.12.256.067.145.121.123.154.11a.074.074,0,0,0,.046-.041.188.188,0,0,0-.017-.135c-.085-.2-.173-.392-.266-.6l-.122-.269-.081-.181.187-.067.108-.037c.072-.024.14-.047.2-.075.682-.3,1.2-.526,1.691-.743l.012-.005a.319.319,0,0,1,.424.08,7.893,7.893,0,0,1,1.8,4.64.53.53,0,0,1,0,.091c0,.009,0,.019,0,.03ZM96.493,1145h2.516a7.529,7.529,0,0,0-1.7-4.31l0,0-.013.006c-.488.218-1.01.448-1.694.745-.049.021-.1.039-.146.056l.038.085c.094.207.183.4.269.6a.534.534,0,0,1,.019.419.443.443,0,0,1-.248.242.468.468,0,0,1-.625-.3c-.039-.084-.079-.169-.118-.253-.079-.168-.162-.342-.236-.517l0-.007-.025.005c-.507.112-1.053.228-1.607.32-.259.043-.523.066-.778.088l-.18.016V1145h3.589l-.011-.07c-.032-.211-.062-.416-.092-.622a.469.469,0,1,1,.917-.143c.038.231.074.467.108.695Zm-9.694.363H83.567l.008-.191a7.85,7.85,0,0,1,1.841-4.774l.089-.108,2.458,1.111-.086.171a9.784,9.784,0,0,0-1.065,3.623ZM83.952,1145h2.51a10.113,10.113,0,0,1,1-3.418l-1.854-.838A7.47,7.47,0,0,0,83.952,1145Zm7.005-3.358a9.445,9.445,0,0,1-2.467-.38l-.169-.078.08-.168a13.778,13.778,0,0,1,2.675-3.309l.293-.219v4.112l-.153.026A1.661,1.661,0,0,1,90.957,1141.64Zm-2.129-.651a10.773,10.773,0,0,0,2.174.285v-3.021A15.308,15.308,0,0,0,88.829,1140.989Zm3.108.637a1.062,1.062,0,0,1-.2-.014l-.147-.03v-4.153l.309.292a14.963,14.963,0,0,1,2.6,3.218l.1.165-.17.091A9.439,9.439,0,0,1,91.937,1141.626Zm.023-3.338v2.973a11.593,11.593,0,0,0,2.113-.323A14.517,14.517,0,0,0,91.96,1138.289Zm2.9,2.859-.081-.139a16.2,16.2,0,0,0-2.291-3.03l-.365-.384.524.076a7.787,7.787,0,0,1,4.469,2.253l.2.193Zm-1.734-3.018a16.337,16.337,0,0,1,1.888,2.555l1.643-.691A7.386,7.386,0,0,0,93.124,1138.129Zm-5.192,2.97a.552.552,0,0,1-.186-.036,10.5,10.5,0,0,1-1.861-.849l-.2-.121.169-.167a7.945,7.945,0,0,1,4.485-2.277l.512-.082-.346.386-.22.245c-.149.165-.289.32-.426.477a13.938,13.938,0,0,0-1.584,2.2A.381.381,0,0,1,87.931,1141.1Zm-1.65-1.081a10.659,10.659,0,0,0,1.588.7.307.307,0,0,0,.052.015.278.278,0,0,0,.029-.042,14.309,14.309,0,0,1,1.626-2.257c.093-.106.187-.212.284-.319A7.52,7.52,0,0,0,86.281,1140.018Z" transform="translate(-82.872 -1136.871)" fill="#fff"/>
          <path id="Path_12" data-name="Path 12" d="M88.646,1150.719H87.562l-.032-.007-.055-.013c-.03-.007-.058-.014-.081-.017-.1-.015-.21-.027-.313-.04h0c-.223-.026-.453-.054-.682-.1a8.537,8.537,0,0,1-5.361-3.54,8.23,8.23,0,0,1-1.387-3.348c-.04-.227-.071-.456-.1-.678-.014-.1-.028-.2-.043-.306l0-.022,0-1.09.014-.11c.01-.076.02-.153.029-.229A8.554,8.554,0,0,1,82,1136.059a8.458,8.458,0,0,1,4.568-2.412c.228-.041.458-.072.68-.1l.306-.042.032,0,1.084,0,.155.021.329.045a8.493,8.493,0,0,1,5.585,3.057,8.346,8.346,0,0,1,1.84,3.958c.039.223.07.449.1.667.014.1.027.2.041.3l0,.031v1.081l-.01.039c0,.018-.01.035-.016.053l-.007.021a8.617,8.617,0,0,1-7.013,7.792c-.232.044-.467.075-.693.1l-.312.042Zm-1.056-.257h1.042l.313-.042c.225-.03.456-.06.681-.1a8.36,8.36,0,0,0,6.805-7.568.323.323,0,0,1,.017-.069c0-.015.009-.029.013-.042l0-.007v-1.043c-.014-.1-.028-.2-.041-.3-.029-.217-.059-.44-.1-.659a8.092,8.092,0,0,0-1.784-3.838,8.244,8.244,0,0,0-5.421-2.967l-.331-.045-.146-.02-1.048,0h0l-.308.042c-.22.03-.447.06-.669.1a8.206,8.206,0,0,0-4.431,2.34,8.3,8.3,0,0,0-2.378,5.006c-.009.077-.019.155-.029.232l-.013.1v1.051c.015.1.029.2.043.307.03.221.061.448.1.67a7.976,7.976,0,0,0,1.344,3.244,8.287,8.287,0,0,0,5.2,3.437c.218.046.442.073.659.1h0c.1.012.213.025.319.04.034,0,.069.013.1.021l.05.011Zm9.1-7.693h0Zm-8.6,7.657v-.051l-.029-.023H87.6l-.04-.009c-.039-.009-.076-.018-.116-.024-.108-.015-.218-.028-.325-.041-.226-.027-.437-.052-.65-.1a8.18,8.18,0,0,1-5.137-3.393,7.866,7.866,0,0,1-1.326-3.2c-.038-.22-.069-.447-.1-.665-.013-.1-.027-.2-.041-.295v-1.038l.013-.1c.01-.078.02-.156.029-.234a8.2,8.2,0,0,1,2.347-4.942,8.1,8.1,0,0,1,4.373-2.309c.219-.04.445-.07.663-.1l.3-.041h.5v-.106l.113.106h.422l.142.02.332.045a8.137,8.137,0,0,1,5.351,2.929,7.983,7.983,0,0,1,1.76,3.786c.038.216.068.437.1.651.013.1.026.194.04.291v1.027l-.009.028a.427.427,0,0,0-.022.095,8.25,8.25,0,0,1-6.716,7.468c-.223.042-.452.072-.674.1h-.009l-.293.04h-.454l-.047.04v.016l-.01-.008Zm-1.99-2.153.034.013a.557.557,0,0,1,.173.123c.292.276.585.56.869.834l0,0,.436.421a1.22,1.22,0,0,0,.106.087l.063.049.089.071V1145.7l-.053,0a13.288,13.288,0,0,0-3.075.448l-.056.026.168.273.3.5c.127.208.03.315-.039.359a.206.206,0,0,1-.162.035.31.31,0,0,1-.178-.147c-.178-.284-.328-.536-.457-.769a.212.212,0,0,0-.3-.121c-.38.133-.767.265-1.141.393l-.028.009-.578.2a.737.737,0,0,0-.1.048l-.056.029-.064.031.046.054a7.851,7.851,0,0,0,4.827,2.747l.18.031-.132-.125-.077-.072c-.039-.036-.07-.065-.1-.094l-.221-.222c-.216-.216-.44-.439-.646-.668l-.007-.008a.328.328,0,0,1-.046-.219l.007-.036.024-.027a.325.325,0,0,1,.151-.087Zm2.247-2.589v4.185l.091-.077a12.588,12.588,0,0,0,3.1-3.7l.034-.063-.07-.016a12.723,12.723,0,0,0-3.1-.334Zm3.695.433-.023.044a12.939,12.939,0,0,1-2.755,3.534l-.13.123.176-.028a7.735,7.735,0,0,0,4.85-2.778l.05-.059Zm-7.01.975Zm-3.313-.213,0,.006.051-.025Zm12.8-.083.035.014.027-.037A.407.407,0,0,1,94.52,1146.8Zm-14.192-4.448,0,.057a7.77,7.77,0,0,0,1.395,4.155l.024.034,2.267-.79-.024-.055a8.3,8.3,0,0,1-.709-3.348v-.055Zm11.911,3.339.052.021.524.214c.495.2.962.391,1.436.594a.4.4,0,0,0,.15.039c.045,0,.113-.014.193-.135a7.7,7.7,0,0,0,1.124-2.67c.061-.3.1-.609.14-.908.017-.132.036-.281.057-.425l.009-.063h-3.01v.056a8.086,8.086,0,0,1-.653,3.227Zm-8.071.336a.421.421,0,0,1,.151.04l0,0,.267-.123a.455.455,0,0,1-.269-.089l.048.108Zm-.445-3.672v.052a7.778,7.778,0,0,0,.652,3.1c.065.151.146.172.224.172a.566.566,0,0,0,.094-.009c.867-.146,1.748-.28,2.495-.391.14-.021.279-.029.427-.038l.2-.013.051,0v-2.888h-.3c-.177,0-.345,0-.515,0a.279.279,0,0,1-.223-.1.211.211,0,0,1-.027-.189c.034-.116.118-.168.273-.168h.791v-3.272h-.054a11.99,11.99,0,0,1-2.909-.415l-.043-.012-.02.04a9.434,9.434,0,0,0-1.093,3.6l0,.059h.712c.321,0,.654,0,.98,0a.311.311,0,0,1,.231.081.211.211,0,0,1,.053.159c0,.081-.048.216-.3.217H83.978c-.045,0-.091,0-.135.006l-.067,0Zm4.628,2.87h.055a14.375,14.375,0,0,1,3.318.38l.045.011.018-.042a7.61,7.61,0,0,0,.67-3.168v-.055H88.351Zm-1.321-3.147Zm5.886-.2H95.87l0-.051c0-.012,0-.023,0-.033a.424.424,0,0,0,0-.071,7.767,7.767,0,0,0-1.772-4.566c-.091-.113-.177-.087-.271-.044l-.012.005c-.488.218-1.01.447-1.692.744-.068.03-.138.053-.212.078l0,0-.1.035-.056.02.024.054.116.256.006.013c.094.207.182.4.267.6a.3.3,0,0,1,.018.234.2.2,0,0,1-.117.111c-.092.037-.221.037-.319-.175-.039-.085-.079-.17-.119-.255-.079-.167-.16-.338-.233-.509a.221.221,0,0,0-.3-.141c-.5.111-1.046.226-1.595.318-.25.042-.5.063-.76.086-.113.01-.231.02-.348.032l-.049.005v3.247h4.1l-.051-.344c-.032-.213-.062-.417-.092-.621s.03-.307.175-.329.239.065.271.259c.038.231.073.465.108.692l.046.3Zm-12.587,0h2.979l0-.05a9.91,9.91,0,0,1,1.078-3.67l.026-.051-2.247-1.016-.027.032a7.724,7.724,0,0,0-1.811,4.7Zm11.69-2.835Zm-4-.677.108,0v.028l.2-.02-.2-.04v.012Zm-2.9-.605.051.023a9.43,9.43,0,0,0,2.413.368,1.567,1.567,0,0,0,.238-.014l.046-.008v-3.747l-.088.066a13.579,13.579,0,0,0-2.636,3.261Zm3.229.358.044.009a.923.923,0,0,0,.171.011,9.476,9.476,0,0,0,2.436-.415l.051-.027-.03-.05a14.832,14.832,0,0,0-2.579-3.19l-.093-.088Zm2.848-.2a.439.439,0,0,1,.284.094l-.033-.073-.018.008-.074-.127-.184.1Zm-6.687-.055.189.085.032-.061.14.038-.094-.044.046-.1A.466.466,0,0,1,84.511,1137.854ZM89.1,1134.4l.109.115a16.322,16.322,0,0,1,2.309,3.054l.024.042,2.171-.912-.059-.058a7.663,7.663,0,0,0-4.4-2.218Zm-6.581,2.292.061.036a10.386,10.386,0,0,0,1.839.839.428.428,0,0,0,.143.029c.062,0,.143-.018.226-.162a14.075,14.075,0,0,1,1.6-2.22c.137-.157.276-.311.424-.475l0,0,.22-.244.1-.116-.154.025a7.821,7.821,0,0,0-4.414,2.241Zm11.561.131.007,0,0,0Zm-11.916-.034.056.025-.051-.03Zm5.548-2.668-.127.141.045-.035.143-.107Zm-.93,15.557-.447-.109a7.648,7.648,0,0,1-3.981-2.392l-.13-.145.184-.063.472-.161.043-.014c.375-.128.762-.259,1.141-.392l.1-.036.054.091.009.016c.13.235.281.488.46.774a.408.408,0,0,0,.249.2.314.314,0,0,0,.245-.05.342.342,0,0,0,.073-.509l-.3-.484-.113-.184.168-.044a16.562,16.562,0,0,1,2.617-.366l.132,0v3.851l-.218-.21-.29-.28c-.285-.275-.579-.56-.873-.838a.5.5,0,0,0-.3-.161.382.382,0,0,0-.3.2.418.418,0,0,0,.066.367c.191.212.395.417.6.626Zm-4.1-2.529a7.35,7.35,0,0,0,3.259,2.044c-.094-.1-.186-.195-.275-.294a.665.665,0,0,1-.115-.63.632.632,0,0,1,.53-.362.7.7,0,0,1,.483.231c.295.279.59.564.875.84l.072.069v-2.979a17.608,17.608,0,0,0-2.257.311l.226.37a.6.6,0,0,1-.152.859.569.569,0,0,1-.44.085.658.658,0,0,1-.411-.311c-.161-.257-.3-.488-.421-.7-.349.122-.7.242-1.044.358l-.044.015Zm6.787,2.512.317-.319a12.516,12.516,0,0,0,2.26-2.989l.053-.1,1.933.744-.124.139a7.556,7.556,0,0,1-4,2.422Zm2.75-3.087a12.433,12.433,0,0,1-1.927,2.615,7.282,7.282,0,0,0,3.3-2.086Zm-3.758,3.057v-3.841h.128a12.445,12.445,0,0,1,2.65.28l.171.036-.086.153a12.249,12.249,0,0,1-2.65,3.183Zm.257-3.585v3.009a11.873,11.873,0,0,0,2.295-2.77A12.15,12.15,0,0,0,88.712,1146.048Zm-6.921.416-.055-.083a7.648,7.648,0,0,1-1.285-3.786l-.009-.137h2.73l0,.125a8.406,8.406,0,0,0,.638,3.031l.052.126Zm-1.073-3.749a7.383,7.383,0,0,0,1.177,3.44l1.63-.568a8.658,8.658,0,0,1-.6-2.872Zm13.708,3.747-.088-.03-.044-.017c-.476-.2-.943-.393-1.437-.595l-.354-.144-.118-.048.047-.118a8.194,8.194,0,0,0,.591-2.92l0-.126H95.8l-.019.145c-.009.069-.018.138-.027.206l0,.012c-.04.312-.078.606-.139.9a7.594,7.594,0,0,1-1.108,2.632l-.02.028Zm-1.709-.976.236.1c.473.193.922.375,1.377.569a7.315,7.315,0,0,0,1.027-2.476c.059-.286.1-.575.136-.882l0-.012.008-.061H93.278A8.444,8.444,0,0,1,92.717,1145.486Zm-8.183.089-.039-.072c0-.009-.011-.021-.018-.038a7.665,7.665,0,0,1-.641-2.884l0-.129.129,0h1.466c.239,0,.394-.124.4-.321a.32.32,0,0,0-.083-.24.417.417,0,0,0-.311-.116c-.322,0-.65,0-.967,0h-.607l.015-.142a9.333,9.333,0,0,1,.995-3.225l.047-.093.1.026a12.1,12.1,0,0,0,2.615.377l.124,0v3.053h-.679a.348.348,0,0,0-.38.248.316.316,0,0,0,.044.284.387.387,0,0,0,.309.145c.173,0,.343,0,.522,0h.182v2.676l-.147.008c-.144.008-.293.017-.438.039-.748.111-1.629.245-2.5.391a.6.6,0,0,1-.06.007Zm-.437-2.869a7.4,7.4,0,0,0,.588,2.594c.853-.143,1.715-.274,2.449-.383.124-.019.246-.028.366-.035v-2.175c-.155,0-.3,0-.454,0a.641.641,0,0,1-.509-.25.572.572,0,0,1-.084-.507.6.6,0,0,1,.626-.433H87.5v-2.548a12.379,12.379,0,0,1-2.445-.354,9.1,9.1,0,0,0-.906,2.9h.32c.318,0,.646,0,.969,0a.667.667,0,0,1,.5.2.574.574,0,0,1,.152.43.607.607,0,0,1-.66.565H84.1Zm7.608,2.777-.105-.024a14.417,14.417,0,0,0-3.012-.346l-.127,0v-2.654h3.888l0,.13a7.472,7.472,0,0,1-.6,2.8Zm-2.987-.625a14.647,14.647,0,0,1,2.832.327,7.206,7.206,0,0,0,.536-2.471H88.718Zm7.056-3.1H93.011l-.038-.253c-.035-.229-.07-.464-.108-.693-.059-.361-.3-.365-.4-.35-.294.044-.285.332-.267.454.03.205.061.41.092.621l.033.218H88.46v-3.038l.117-.011.169-.015h.012c.254-.022.515-.045.768-.087.551-.092,1.095-.207,1.6-.319l.032-.006.1-.016.045.1c.073.172.155.345.234.512.04.085.08.169.119.254.146.318.371.268.46.231a.317.317,0,0,0,.177-.171.409.409,0,0,0-.018-.32c-.085-.2-.174-.393-.267-.6l-.1-.215.132-.047c.055-.019.1-.036.138-.053.685-.3,1.208-.527,1.693-.744l.1-.046.067.075a7.657,7.657,0,0,1,1.724,4.383Zm-2.543-.257H95.5a7.393,7.393,0,0,0-1.6-4.024c-.466.208-.97.429-1.622.713l-.024.01c.088.195.171.378.252.566a.659.659,0,0,1,.02.519.571.571,0,0,1-.318.312.594.594,0,0,1-.79-.362c-.039-.084-.078-.168-.118-.251-.066-.14-.135-.285-.2-.431-.487.107-1.007.216-1.535.3-.263.044-.53.067-.787.089h-.013l-.051,0v2.546h3.311c-.028-.184-.055-.365-.081-.545a.6.6,0,1,1,1.171-.182c.038.231.073.466.108.693Zm-10.025.253H80.444l.009-.137a7.6,7.6,0,0,1,1.686-4.328l.062-.078,2.065.934-.057.119a9.97,9.97,0,0,0-.99,3.375Zm-2.487-.257h2.256a10.2,10.2,0,0,1,.945-3.226l-1.643-.743A7.335,7.335,0,0,0,80.719,1141.5Zm6.863-3.467a11.184,11.184,0,0,1-2.159-.29l-.159-.044.081-.143a15.444,15.444,0,0,1,2.2-2.766l.217-.206v3.446l-.126,0Zm-1.927-.5a11.593,11.593,0,0,0,1.848.239v-2.583A16.032,16.032,0,0,0,85.655,1137.535Zm2.8.485v-3.412l.219.218a14.609,14.609,0,0,1,2.132,2.674l.09.145-.164.047a11.615,11.615,0,0,1-2.148.328Zm.257-2.789v2.527a12.733,12.733,0,0,0,1.783-.27A14.293,14.293,0,0,0,88.717,1135.231ZM84.6,1137.5l-.071-.012a.438.438,0,0,1-.075-.021,10.838,10.838,0,0,1-1.607-.708l-.154-.085.129-.121a7.624,7.624,0,0,1,3.638-1.937l.394-.089-.27.3c-.078.087-.18.2-.282.318a14.183,14.183,0,0,0-1.611,2.237.409.409,0,0,1-.042.062Zm-1.471-.88a10.933,10.933,0,0,0,1.364.589,14.48,14.48,0,0,1,1.613-2.232l.007-.008A7.332,7.332,0,0,0,83.13,1136.619Zm8.458.856-.057-.1a16.168,16.168,0,0,0-1.874-2.535l-.264-.294.386.083a7.493,7.493,0,0,1,3.592,1.9l.146.136Zm-1.471-2.5a16.248,16.248,0,0,1,1.577,2.173l1.354-.569A7.218,7.218,0,0,0,90.116,1134.979Z" transform="translate(-79.5 -1133.5)" fill="#fff"/>
        </g>
      </g>
    </g>
  </g>
</svg>
