<svg id="SxquOi.tif" xmlns="http://www.w3.org/2000/svg" width="19.949" height="19.072" viewBox="0 0 19.949 19.072">
  <g id="Group_35" data-name="Group 35" transform="translate(0 0)">
    <path id="Path_476" data-name="Path 476" d="M232.61,323.751c-.006-.089-.017-.179-.017-.268q0-6.155,0-12.309v-.279h4.277v1.765l.045.017c.07-.08.139-.161.211-.24a5.115,5.115,0,0,1,2.814-1.761,4.524,4.524,0,0,1,5.252,2.9,7.484,7.484,0,0,1,.45,2.579c.011,2.491.005,4.982.006,7.473,0,.041,0,.083,0,.124h-4.278c0-.069,0-.138,0-.207,0-2.179.006-4.358-.005-6.537a7.233,7.233,0,0,0-.118-1.276,2.016,2.016,0,0,0-2.63-1.7,2.358,2.358,0,0,0-1.727,2.187c-.014,2.49-.008,4.98-.01,7.47a.418.418,0,0,0,.009.061Z" transform="translate(-225.703 -304.678)" fill="#fff"/>
    <path id="Path_477" data-name="Path 477" d="M73.208,330.856c0-.083-.006-.166-.006-.249q0-6.176,0-12.351V318h4.28v.258q0,6.2,0,12.393c0,.069,0,.138,0,.207Z" transform="translate(-72.947 -311.784)" fill="#fff"/>
    <path id="Path_478" data-name="Path 478" d="M69.4,168.689a2.31,2.31,0,0,1,2.27,1.284,2.191,2.191,0,0,1-1.71,3.13,2.653,2.653,0,0,1-1.928-.359,2.091,2.091,0,0,1-.926-2.2,2.067,2.067,0,0,1,1.654-1.757A5.13,5.13,0,0,1,69.4,168.689Z" transform="translate(-67.07 -168.689)" fill="#fff"/>
  </g>
</svg>
