<svg xmlns="http://www.w3.org/2000/svg" width="81" height="33.769" viewBox="0 0 81 33.769">
  <g id="Group_10" data-name="Group 10" transform="translate(-370 -139.606)">
    <g id="Group_9" data-name="Group 9" transform="translate(370 139.606)">
      <g id="Group_1" data-name="Group 1" transform="translate(0 0.02)">
        <path id="Path_1" data-name="Path 1" d="M284.877,705.048h-3.59v-13.07c0-1.4-1.122-2.075-2.58-2.075-1.4,0-2.58.673-2.58,2.075V720.7h-3.534V687.659h3.534V689a6.253,6.253,0,0,1,6.114-1.4c1.739.561,2.636,1.515,2.636,4.824Z" transform="translate(-272.592 -687.342)"/>
      </g>
      <g id="Group_2" data-name="Group 2" transform="translate(15.089)">
        <path id="Path_2" data-name="Path 2" d="M383.5,719.575c-.9.9-2.636,1.4-5.161,1.4-2.468,0-4.207-.5-5.1-1.4-.954-.953-1.01-2.412-1.01-3.871V692.482c0-1.515.056-2.973,1.01-3.871.9-.954,2.636-1.4,5.1-1.4,2.524,0,4.263.449,5.161,1.4.954.9,1.01,2.356,1.01,3.871v12.453h-8.751v11.387c0,1.4,1.178,2.019,2.58,2.019,1.458,0,2.58-.617,2.58-2.019v-7.461h3.59V715.7C384.507,717.163,384.451,718.622,383.5,719.575Zm-5.161-29.73c-1.4,0-2.58.561-2.58,2.019V702.3h5.161V691.865C380.917,690.406,379.795,689.845,378.336,689.845Z" transform="translate(-372.222 -687.209)"/>
      </g>
      <g id="Group_3" data-name="Group 3" transform="translate(30.515)">
        <path id="Path_3" data-name="Path 3" d="M477.609,704.991v15.594h-3.534v-28.1c0-1.515.056-2.917,1.01-3.871.9-.9,2.636-1.4,5.1-1.4,2.524,0,4.263.5,5.16,1.4.954.953,1.01,2.356,1.01,3.871v5.778h-3.59v-6.395c0-1.4-1.122-2.019-2.58-2.019-1.4,0-2.581.617-2.581,2.019v10.49h8.751v2.637Z" transform="translate(-474.075 -687.209)"/>
      </g>
      <g id="Group_4" data-name="Group 4" transform="translate(53.29 0.027)">
        <path id="Path_4" data-name="Path 4" d="M633.2,720.735V692.071c0-1.4-1.178-2.076-2.58-2.076-1.458,0-2.58.617-2.58,2.076v28.664h-3.59V687.752h3.59V689.1a5.791,5.791,0,0,1,6.058-1.4c1.795.561,2.636,1.515,2.636,4.768v28.271Z" transform="translate(-624.446 -687.386)"/>
      </g>
      <g id="Group_5" data-name="Group 5" transform="translate(68.715)">
        <path id="Path_5" data-name="Path 5" d="M737.572,719.575c-.9.9-2.637,1.4-5.161,1.4-2.468,0-4.207-.5-5.1-1.4-.953-.953-1.01-2.412-1.01-3.871V692.482c0-1.515.056-2.973,1.01-3.871.9-.954,2.636-1.4,5.1-1.4,2.524,0,4.263.449,5.161,1.4.954.9,1.01,2.356,1.01,3.871v12.453h-8.75v11.387c0,1.4,1.178,2.019,2.58,2.019,1.458,0,2.58-.617,2.58-2.019v-7.461h3.59V715.7C738.582,717.163,738.526,718.622,737.572,719.575Zm-5.161-29.73c-1.4,0-2.58.561-2.58,2.019V702.3h5.16V691.865C734.992,690.406,733.87,689.845,732.411,689.845Z" transform="translate(-726.297 -687.209)"/>
      </g>
      <g id="Group_8" data-name="Group 8" transform="translate(46.109 0.393)">
        <g id="Group_6" data-name="Group 6">
          <rect id="Rectangle_2" data-name="Rectangle 2" width="3.534" height="7.124"/>
        </g>
        <g id="Group_7" data-name="Group 7" transform="translate(0 10.658)">
          <rect id="Rectangle_3" data-name="Rectangle 3" width="3.534" height="22.326"/>
        </g>
      </g>
    </g>
  </g>
</svg>
