<svg xmlns="http://www.w3.org/2000/svg" width="16.512" height="18.019" viewBox="0 0 16.512 18.019">
  <g id="SMZoxS.tif" transform="translate(451.263 -140.463)">
    <g id="Group_184" data-name="Group 184" transform="translate(-451.263 140.463)">
      <path id="Path_1456" data-name="Path 1456" d="M-451.263,208.258c.035-.331.055-.664.106-.992a8.133,8.133,0,0,1,3.655-5.73,10.293,10.293,0,0,1,1.137-.624.747.747,0,0,1,1.047.327.746.746,0,0,1-.407,1.033,6.777,6.777,0,0,0-2.958,2.539,6.757,6.757,0,0,0,3.242,9.928,6.741,6.741,0,0,0,8.894-4.292,6.751,6.751,0,0,0-3.617-8.126.806.806,0,0,1-.577-.7.744.744,0,0,1,1.064-.735,8.022,8.022,0,0,1,2.4,1.6,7.993,7.993,0,0,1,2.465,4.91,8.067,8.067,0,0,1-2.54,7.066,7.833,7.833,0,0,1-4.224,2.115,8.051,8.051,0,0,1-6.44-1.594,8.04,8.04,0,0,1-3.046-4.847c-.086-.4-.109-.811-.161-1.217q-.018-.139-.035-.277Z" transform="translate(451.263 -198.686)"/>
      <path id="Path_1457" data-name="Path 1457" d="M-237.354,140.463a.879.879,0,0,1,.583.948c-.013,1.888,0,3.775-.007,5.663a1.369,1.369,0,0,1-.036.365.734.734,0,0,1-.795.524.732.732,0,0,1-.664-.662,2.55,2.55,0,0,1-.01-.263c0-1.876.007-3.752-.006-5.628a.878.878,0,0,1,.583-.948Z" transform="translate(245.797 -140.463)"/>
    </g>
  </g>
</svg>
