<svg xmlns="http://www.w3.org/2000/svg" width="61.761" height="48.285" viewBox="0 0 61.761 48.285">
  <g id="Group_206" data-name="Group 206" transform="translate(0)">
    <path id="Path_522" data-name="Path 522" d="M-945.965,1643.323a1.8,1.8,0,0,0-.4-.107,13.9,13.9,0,0,1-12.229-13.889c0-5.6-.007-12.969.006-20.345a13.9,13.9,0,0,1,.141-2.139,13.957,13.957,0,0,1,4.713-8.449,14,14,0,0,1,9.088-3.352q6.57,0,13.142,0,10.364,0,20.725.006a13.936,13.936,0,0,1,1.677.1,13.9,13.9,0,0,1,11.8,10.293c.129.486.226.981.33,1.5.042.213.084.427.129.639V1630.7a1.865,1.865,0,0,0-.1.379c-.909,5.829-4.074,9.626-9.677,11.609a13.3,13.3,0,0,1-1.9.462c-.287.056-.583.113-.879.178Zm10.435-45.307c-2.408,0-5.583,0-8.792.009a11.694,11.694,0,0,0-2.295.191,10.938,10.938,0,0,0-9,10.954c-.008,7.227-.006,13.781.006,20.037a10.949,10.949,0,0,0,.2,2.173,10.973,10.973,0,0,0,10.984,8.96q6.632,0,13.266,0c6.688,0,13.472,0,20.163-.008a11.455,11.455,0,0,0,2.1-.175,10.988,10.988,0,0,0,9.07-10.911c.013-6.808.021-13.474-.017-20.166a11.952,11.952,0,0,0-.488-3.271,10.873,10.873,0,0,0-10.5-7.791c-1.987-.006-4.122-.01-6.719-.01l-5.041,0-5.038,0Z" transform="translate(958.601 -1595.038)" fill="#fff"/>
    <path id="Path_523" data-name="Path 523" d="M-857.97,1735.517a13.948,13.948,0,0,1-8.536-2.988c-3.828-2.969-7.717-5.992-11.478-8.916l-.163-.126a1.516,1.516,0,0,1-.4-2.218,1.393,1.393,0,0,1,1.12-.566,1.85,1.85,0,0,1,1.125.42q2.261,1.752,4.519,3.509c2.3,1.789,4.682,3.638,7.031,5.45a11.223,11.223,0,0,0,6.876,2.445,11.249,11.249,0,0,0,6.81-2.388c3.036-2.3,6.11-4.652,9.083-6.927q1.466-1.122,2.934-2.243a1.715,1.715,0,0,1,1.025-.409,1.5,1.5,0,0,1,.7.189,1.376,1.376,0,0,1,.8,1.46,1.374,1.374,0,0,1-.59,1.065q-1.659,1.268-3.317,2.54c-3.036,2.328-6.175,4.735-9.289,7.062A13.474,13.474,0,0,1-857.97,1735.517Z" transform="translate(888.815 -1704.899)" fill="#fff"/>
  </g>
</svg>
