<svg xmlns="http://www.w3.org/2000/svg" width="72.919" height="71.405" viewBox="0 0 72.919 71.405">
  <g id="Group_256" data-name="Group 256" transform="translate(-177.086 -1801.645)">
    <g id="PtBwlR.tif" transform="translate(189.652 1815.106)">
      <g id="Group_109" data-name="Group 109" transform="translate(0 0)">
        <path id="Path_977" data-name="Path 977" d="M52.9,105.122h3.3a4.677,4.677,0,0,0,.573.109,27.469,27.469,0,0,1,10.057,2.634.8.8,0,0,0,.982-.083,3.271,3.271,0,0,1,3.709-.254,3.16,3.16,0,0,1,1.9,3.25,2.025,2.025,0,0,0,.941,2.23,1.826,1.826,0,0,1,.42.411c.24.326.5.316.867.2a3.571,3.571,0,0,1,4.1,5.283.815.815,0,0,0-.022.992,28.642,28.642,0,0,1,3.284,19.153,28.338,28.338,0,0,1-8.943,16.431.614.614,0,0,0-.221.748,3.566,3.566,0,0,1-5.605,3.883.581.581,0,0,0-.728-.093,27.967,27.967,0,0,1-10.92,2.98,28.418,28.418,0,0,1-14.763-2.9.835.835,0,0,0-.992.053,3.422,3.422,0,0,1-3.971-.057,3.473,3.473,0,0,1-1.457-3.706.8.8,0,0,0-.288-.905,29.283,29.283,0,0,1-9.372-21.067c0-.194-.11-.508-.246-.558a3.878,3.878,0,0,1-2.415-2.689v-1.414a3.713,3.713,0,0,1,3.343-2.938c.134-.016.287-.266.351-.437.556-1.483,1.036-3,1.657-4.452a29.878,29.878,0,0,1,1.663-3.106.794.794,0,0,1,1.206-.308.864.864,0,0,1,.315,1.218c-.107.209-.24.4-.358.608a26.447,26.447,0,0,0-2.828,6.838c.444.482.828.921,1.241,1.332a.577.577,0,0,0,.444.15,57.7,57.7,0,0,1,10.453-1.14.659.659,0,0,0,.447-.275,3.656,3.656,0,0,1,3.772-1.741.74.74,0,0,0,.584-.224,42.778,42.778,0,0,1,5.786-6.26.568.568,0,0,0,.128-.436c-.1-.781-.228-1.558-.37-2.489a37.314,37.314,0,0,0-8.821-3.776,3.7,3.7,0,0,1-5.37,1.277c-.78.813-1.578,1.647-2.379,2.478a.874.874,0,0,1-1.336.137.843.843,0,0,1,.021-1.336c.683-.731,1.371-1.461,2.109-2.135a.893.893,0,0,0,.325-1.089,3.554,3.554,0,0,1,5.673-3.716.707.707,0,0,0,.926.076,27.151,27.151,0,0,1,8.216-2.532C51.158,105.346,52.029,105.237,52.9,105.122Zm-5.193,24.585c-.884,2.328-2.008,3-4.63,2.831a1.311,1.311,0,0,0-.089.139,38.88,38.88,0,0,0-3.752,20.448.517.517,0,0,0,.484.542,3.137,3.137,0,0,1,1.908,1.186.558.558,0,0,0,.777.2,54.489,54.489,0,0,0,10.766-5.485,53.764,53.764,0,0,0,12.261-11.181.6.6,0,0,0,.075-.669,9.257,9.257,0,0,1-.449-2.087c-.031-.443-.091-.68-.52-.889a53.95,53.95,0,0,0-13.5-4.5C49.929,130.024,48.806,129.88,47.707,129.707Zm24.95,24.636a27.316,27.316,0,0,0,6.423-8.639c.169-.354-.018-.5-.211-.69a55.641,55.641,0,0,0-7.244-6.094c-.447-.317-.769-.409-1.127.108.009.043.027.116.042.19.3,1.457.605,2.912.881,4.373a.839.839,0,0,1-.659,1.071c-.563.143-.989-.215-1.118-.9-.266-1.415-.549-2.827-.81-4.169a6.643,6.643,0,0,1-1.287-.239c-.394-.162-.578-.045-.821.255A54.5,54.5,0,0,1,43.778,156.4c-.857.333-1.5.654-1.432,1.687a1.139,1.139,0,0,1-.039.24c.206.1.393.207.587.3a26.873,26.873,0,0,0,23.519-.04.771.771,0,0,0,.5-.942,3.564,3.564,0,0,1,2.478-3.765c.161-.053.321-.108.549-.185.055-1.516.115-3.024.163-4.533.022-.674.294-1.014.858-1.028.595-.015.918.332.9,1.034-.026,1.255-.02,2.515-.14,3.762C71.654,153.671,71.761,154.174,72.657,154.342ZM40.3,129.222l-10.066,1.161a3.116,3.116,0,0,1-1.736,3.071,1.411,1.411,0,0,0-.924,1.8c.008.058.009.117.014.176a30.712,30.712,0,0,0,3.969,12.615,24.834,24.834,0,0,0,4.992,6.307,1.2,1.2,0,0,0,.927-1.447,38.369,38.369,0,0,1,.753-11.922,40.21,40.21,0,0,1,3.09-8.97.85.85,0,0,0,.117-.591C41.12,130.738,40.749,130.082,40.3,129.222Zm26.429-16.814a37.051,37.051,0,0,0-8.346,3.628.82.82,0,0,0-.252.552,13.183,13.183,0,0,1-.178,1.727.74.74,0,0,0,.268.89,39.746,39.746,0,0,1,9.18,11.9c.4.785.737,1.5,1.792,1.272.192-.041.459-.094.541-.231a51.874,51.874,0,0,0,5.13-11.63.563.563,0,0,0-.122-.482c-1.726-1.518-2.023-2.993-.971-5.109l-1.556-1.461A3.673,3.673,0,0,1,66.726,112.409Zm11.289,8a2.886,2.886,0,0,1-.612.134c-.578-.02-.789.3-.936.813-.265.92-.585,1.825-.913,2.725a55.379,55.379,0,0,1-4.186,8.853c-.1.17-.181.5-.092.6a3.788,3.788,0,0,1,.78,3.317l7.992,6.575A27.661,27.661,0,0,0,78.015,120.409Zm-31.288,6.074a5.521,5.521,0,0,1,.589.942.83.83,0,0,0,.787.56c1.355.2,2.713.4,4.056.665a54.117,54.117,0,0,1,13.4,4.6.67.67,0,0,0,.6-.015.646.646,0,0,0,.026-.587,38.981,38.981,0,0,0-9.2-12.169c-.2-.181-.361-.356-.7-.168a3.5,3.5,0,0,1-3.382.024.619.619,0,0,0-.549.037A37.375,37.375,0,0,0,46.727,126.484Zm19.621-16.857c.029.025,0-.007-.029-.023-.175-.088-.35-.176-.528-.257a27.145,27.145,0,0,0-22.965.281c-.178.087-.4.381-.369.526a.87.87,0,0,0,.491.51c.747.289,1.539.469,2.272.785,2.3.989,4.573,2.022,6.92,3.065a3.726,3.726,0,0,1,5.07.114,38.579,38.579,0,0,1,8.117-3.644C65.994,110.776,66.567,110.6,66.348,109.627Zm10.305,9.186a1.788,1.788,0,1,0-1.721-1.847A1.751,1.751,0,0,0,76.653,118.813ZM28.409,130.424a1.737,1.737,0,0,0-1.768-1.8,1.8,1.8,0,0,0-1.789,1.8,1.821,1.821,0,0,0,1.791,1.8A1.741,1.741,0,0,0,28.409,130.424Zm43.256-19.756a1.769,1.769,0,0,0-1.789-1.783,1.82,1.82,0,0,0-1.778,1.754,1.75,1.75,0,0,0,1.808,1.821A1.71,1.71,0,0,0,71.665,110.668ZM70.35,135.915a1.776,1.776,0,0,0-1.781-1.8,1.813,1.813,0,0,0,.021,3.626A1.774,1.774,0,0,0,70.35,135.915ZM40.669,110.684a1.745,1.745,0,0,0-1.773-1.8,1.794,1.794,0,0,0,0,3.589A1.763,1.763,0,0,0,40.669,110.684ZM72.233,157.3a1.78,1.78,0,1,0-3.56.055,1.78,1.78,0,0,0,3.56-.055Zm-28.09-26.487a1.786,1.786,0,1,0-1.793-1.778A1.751,1.751,0,0,0,44.143,130.817Zm-3.473,26.33a1.783,1.783,0,1,0-1.773,1.816A1.8,1.8,0,0,0,40.67,157.147Zm15.688-39.994a1.738,1.738,0,0,0-1.776-1.787,1.835,1.835,0,0,0-1.79,1.808,1.805,1.805,0,0,0,1.811,1.78A1.717,1.717,0,0,0,56.358,117.153Z" transform="translate(-23.089 -105.122)" fill="#07388a"/>
      </g>
    </g>
    <g id="bdUb3F.tif" transform="translate(177.334 1801.895)">
      <g id="Group_115" data-name="Group 115" transform="translate(0 0)">
        <path id="Path_985" data-name="Path 985" d="M78.446,818.35a46.421,46.421,0,0,0,11.035,4.724c.509.142.623.3.622.829-.006,2.238.034,4.477-.036,6.713a16.4,16.4,0,0,1-2.13,7.6,17.743,17.743,0,0,1-6.851,6.821,7.915,7.915,0,0,1-2.494,1,2.88,2.88,0,0,1-1.574-.275,15.419,15.419,0,0,1-4.436-2.749,17.178,17.178,0,0,1-4.7-6.323,15.355,15.355,0,0,1-1.22-4.434c-.112-1.038-.168-2.085-.186-3.128-.029-1.732-.008-3.465-.008-5.2,0-.567.1-.711.65-.862A44.8,44.8,0,0,0,77.7,818.589c.139-.081.281-.16.421-.239Zm10.447,9.257h.042c0-1.055-.008-2.111.006-3.167a.332.332,0,0,0-.292-.385,46.762,46.762,0,0,1-10.132-4.315.407.407,0,0,0-.466,0,37.723,37.723,0,0,1-5.2,2.566c-1.641.637-3.317,1.185-4.979,1.769-.132.047-.244.064-.241.255.036,2.308.01,4.619.108,6.924a14.28,14.28,0,0,0,1.566,5.715,16.138,16.138,0,0,0,4.088,5.19,15.148,15.148,0,0,0,3.969,2.486,1.993,1.993,0,0,0,1.719.048c.251-.12.515-.215.765-.338a16.424,16.424,0,0,0,5.69-4.648,15.607,15.607,0,0,0,3.349-8.882C88.949,829.757,88.893,828.68,88.893,827.607Z" transform="translate(-66.456 -818.35)" fill="#07388a" stroke="#07388a" stroke-width="0.5"/>
      </g>
    </g>
  </g>
</svg>
