<svg id="gZqJ5J.tif" xmlns="http://www.w3.org/2000/svg" width="12.154" height="16.219" viewBox="0 0 12.154 16.219">
  <g id="Group_84" data-name="Group 84" transform="translate(0)">
    <path id="Path_510" data-name="Path 510" d="M2695.119,1670.793v-13.932c.007-.008.018-.015.019-.024a1.416,1.416,0,0,1,1.484-1.123c2.267.02,4.535.009,6.8,0a.619.619,0,0,1,.475.2q1.584,1.594,3.177,3.179a.621.621,0,0,1,.2.476q-.007,5.453,0,10.906c0,.058,0,.116,0,.174a1.222,1.222,0,0,1-.483.955,4.372,4.372,0,0,1-.653.328h-9.873a.71.71,0,0,0-.085-.033,1.231,1.231,0,0,1-.771-.5A4.556,4.556,0,0,1,2695.119,1670.793Zm8.1-14.393h-.164q-3.243,0-6.486,0a.685.685,0,0,0-.773.782q0,6.648,0,13.3a.684.684,0,0,0,.78.775q4.619,0,9.238,0a1.1,1.1,0,0,0,.311-.038c.315-.095.464-.343.465-.756q0-5.255,0-10.51c0-.056,0-.111-.008-.175h-.19c-.6,0-1.2.005-1.8,0a1.276,1.276,0,0,1-1.219-.752,1.664,1.664,0,0,1-.144-.654C2703.208,1657.719,2703.22,1657.07,2703.22,1656.4Zm2.833,2.687-2.148-2.148c0,.022-.007.057-.007.092,0,.437,0,.875,0,1.312a.678.678,0,0,0,.753.752c.432,0,.864,0,1.295,0C2705.987,1659.1,2706.027,1659.089,2706.053,1659.087Z" transform="translate(-2695.119 -1655.715)" fill="#fff"/>
    <path id="Path_511" data-name="Path 511" d="M2763.487,1827.514c-.051.251-.09.506-.155.754-.083.315-.19.624-.276.938a.246.246,0,0,0,.041.192,8.268,8.268,0,0,0,1.316,1.273.335.335,0,0,0,.224.056,4.908,4.908,0,0,1,1.352-.067,1.748,1.748,0,0,1,.352.084.712.712,0,0,1,.49.848.826.826,0,0,1-.732.716,1.322,1.322,0,0,1-.973-.281c-.241-.15-.467-.325-.705-.48a.279.279,0,0,0-.2-.042c-.692.178-1.382.36-2.07.553a.378.378,0,0,0-.2.174,5.365,5.365,0,0,1-1.3,1.7,2.651,2.651,0,0,1-.549.336,1.01,1.01,0,0,1-1.083-.156.744.744,0,0,1,.037-1.211,4.617,4.617,0,0,1,.805-.522c.5-.263,1.022-.5,1.531-.749a.347.347,0,0,0,.161-.172q.344-.957.667-1.922a.265.265,0,0,0-.045-.181c-.2-.352-.431-.688-.6-1.054a1.827,1.827,0,0,1,0-1.476.87.87,0,0,1,.9-.577c.689.01.9.391.965,1.026a2.326,2.326,0,0,1,0,.237Zm-.969,1.121a3.3,3.3,0,0,0,.244-1.428c-.041-.242-.206-.369-.419-.256a.47.47,0,0,0-.187.283A1.7,1.7,0,0,0,2762.518,1828.635Zm-.139,2.61,1.177-.311-.791-.853Zm-1.49,1.427-.04-.053c-.419.236-.838.471-1.256.709a.427.427,0,0,0-.1.1c-.095.109-.084.154.045.207a.46.46,0,0,0,.437-.041A3.281,3.281,0,0,0,2760.889,1832.672Zm4.453-1.366-.014.052c.137.08.271.17.414.237a.467.467,0,0,0,.257.036.2.2,0,0,0,.141-.128.187.187,0,0,0-.118-.142C2765.8,1831.332,2765.569,1831.323,2765.342,1831.306Z" transform="translate(-2756.71 -1820.835)" fill="#fff"/>
  </g>
</svg>
