<svg id="QZg1Gh.tif" xmlns="http://www.w3.org/2000/svg" width="24.835" height="24.903" viewBox="0 0 24.835 24.903">
  <g id="Group_194" data-name="Group 194">
    <path id="Path_529" data-name="Path 529" d="M-2377.162,2265.719a4.014,4.014,0,0,1,1.962,1.308c.938.964,1.905,1.9,2.822,2.882a2.282,2.282,0,0,1,.009,3.135c-.609.671-1.263,1.3-1.908,1.94a.292.292,0,0,0-.084.406,13.274,13.274,0,0,0,2.049,2.969,18.634,18.634,0,0,0,3.907,3.444c.366.236.763.424,1.138.647.135.08.189-.005.262-.078q.817-.816,1.634-1.633a2.833,2.833,0,0,1,1.487-.865,2.3,2.3,0,0,1,2.109.674c1.095,1.071,2.183,2.149,3.252,3.246a2.469,2.469,0,0,1-.03,3.711c-.621.65-1.253,1.29-1.889,1.926a4.2,4.2,0,0,1-3.541,1.163,15.267,15.267,0,0,1-5.955-2.082,25.9,25.9,0,0,1-6.725-5.3,26.232,26.232,0,0,1-4.274-6.139,15.43,15.43,0,0,1-1.451-4.126,5.353,5.353,0,0,1,.212-3.22,4.21,4.21,0,0,1,.7-1.094c.667-.728,1.378-1.417,2.083-2.11a3.115,3.115,0,0,1,1.495-.8Zm13.454,23.639a2.909,2.909,0,0,0,2.248-.7c.716-.692,1.411-1.408,2.089-2.138a1.154,1.154,0,0,0-.015-1.769c-1.079-1.11-2.179-2.2-3.284-3.284a1.071,1.071,0,0,0-1.46-.105,2.812,2.812,0,0,0-.366.319c-.61.6-1.214,1.215-1.825,1.82a1.034,1.034,0,0,1-1.329.2c-.353-.182-.707-.362-1.046-.565a18.54,18.54,0,0,1-3.984-3.279,15.2,15.2,0,0,1-2.924-4.122,1.113,1.113,0,0,1,.289-1.52c.594-.574,1.191-1.147,1.768-1.739a1.2,1.2,0,0,0-.007-1.976q-1.5-1.524-3.028-3.025a1.9,1.9,0,0,0-.547-.391,1.217,1.217,0,0,0-1.418.4c-.608.6-1.224,1.185-1.8,1.811a3.758,3.758,0,0,0-.689,1.042,4.077,4.077,0,0,0-.085,2.438,15.849,15.849,0,0,0,1.791,4.616,26.294,26.294,0,0,0,5.293,6.641,24.076,24.076,0,0,0,7.227,4.571A9.615,9.615,0,0,0-2363.708,2289.358Z" transform="translate(2382.53 -2265.719)" fill="#fff"/>
  </g>
</svg>
