<svg id="T9Vxjs.tif" xmlns="http://www.w3.org/2000/svg" width="57.387" height="41.006" viewBox="0 0 57.387 41.006">
  <g id="Group_188" data-name="Group 188" transform="translate(0)">
    <path id="Path_512" data-name="Path 512" d="M119.493,244.425c.346.074.7.131,1.038.226a4.465,4.465,0,0,1,3.241,3.947c.127,1.849.09,3.709.109,5.565.014,1.432.022,2.864,0,4.3-.023,1.226-1.01,1.951-2.007,1.5a1.558,1.558,0,0,1-.877-1.6q.01-4.262,0-8.524a6.3,6.3,0,0,0-.03-.871,1.685,1.685,0,0,0-1.862-1.6q-19.55,0-39.1-.009a3.1,3.1,0,0,0-2.181.858,2,2,0,0,0-.692,1.593q.024,12.115.011,24.23a3.131,3.131,0,0,0,3.043,3.02q8.3,0,16.594,0a1.414,1.414,0,0,1,1.423,2.064,1.441,1.441,0,0,1-1.39.761c-1.993-.013-3.986,0-5.979,0-3.561,0-7.127-.123-10.68.04-2.741.125-5.938-2.815-5.9-5.933.081-7.36.026-14.721.026-22.082,0-.694,0-1.387,0-2.081a5.433,5.433,0,0,1,4.714-5.263c.241-.03.478-.091.717-.137Z" transform="translate(-74.25 -244.425)" fill="#fff"/>
    <path id="Path_513" data-name="Path 513" d="M310.21,398.39a4.537,4.537,0,0,1,3.5,5.757,4.288,4.288,0,0,1-2.94,2.975.662.662,0,0,0-.565.792c.033.782.012,1.565.008,2.349a2.672,2.672,0,0,1-1.405,2.5,2.583,2.583,0,0,1-2.858-.139,27.8,27.8,0,0,0-10.594-4.326c-.908-.177-1.019-.111-1.034.8a13.748,13.748,0,0,1-.086,1.738,3.521,3.521,0,0,1-7-.419,6.226,6.226,0,0,1,0-.8,3.868,3.868,0,0,0-1.076-3.283,4.813,4.813,0,0,1-.717-5.518,5.218,5.218,0,0,1,4.851-3.249,15.229,15.229,0,0,1,4.336.2,5.273,5.273,0,0,0,2.225-.328,24.134,24.134,0,0,0,8.857-4,2.717,2.717,0,0,1,3.136-.276,2.627,2.627,0,0,1,1.362,2.388C310.224,396.48,310.21,397.418,310.21,398.39Zm-2.9-2.519c-5.482,3-5.482,3-11.012,4.6a.554.554,0,0,0-.329.394c-.023,1.539-.015,3.079-.015,4.517,2.024.625,4.008,1.1,5.882,1.853s3.654,1.785,5.474,2.695Zm-14.283,4.553c-.973,0-1.866-.029-2.757.007a2.573,2.573,0,0,0-2.453,2.32,2.473,2.473,0,0,0,1.717,2.71,24.653,24.653,0,0,0,3.493.285Zm-2.955,8.113a9.6,9.6,0,0,0,.033,1.758.991.991,0,0,0,.7.6c.175.025.552-.368.592-.613a11.1,11.1,0,0,0,.029-1.741Zm20.175-4.309a1.516,1.516,0,0,0,.759-1.7,4.253,4.253,0,0,0-.606-1.03l-.153.107Z" transform="translate(-256.516 -372.792)" fill="#fff"/>
    <path id="Path_514" data-name="Path 514" d="M149.266,306.681c1.986-1.971,3.864-3.824,5.731-5.69q4.679-4.675,9.342-9.366a1.35,1.35,0,0,1,1.62-.452,2.22,2.22,0,0,1,.922,1.116c.206.545-.172,1.01-.57,1.407q-3.278,3.274-6.546,6.559-4.053,4.066-8.107,8.132c-1.532,1.534-3.089,1.532-4.618,0q-7.278-7.3-14.552-14.6a4.159,4.159,0,0,1-.45-.5,1.351,1.351,0,0,1,.089-1.729,1.387,1.387,0,0,1,1.764-.307,3.629,3.629,0,0,1,.66.564q7.114,7.13,14.221,14.268C148.945,306.258,149.087,306.463,149.266,306.681Z" transform="translate(-124.019 -284.764)" fill="#fff"/>
  </g>
</svg>
