<svg xmlns="http://www.w3.org/2000/svg" width="64.137" height="59.439" viewBox="0 0 64.137 59.439">
  <g id="Group_205" data-name="Group 205" transform="translate(0.25 0.25)">
    <path id="Path_526" data-name="Path 526" d="M-2975.906,2519.93a16.764,16.764,0,0,1-6.11-1.276c-2.491-.969-4.892-2.081-7.335-3.229a3.5,3.5,0,0,0-1.491-.375,2.955,2.955,0,0,0-1.644.532c-1.318.862-2.686,1.7-4.01,2.517q-.68.419-1.358.836a1.661,1.661,0,0,1-.825.3h0c-.131,0-.473,0-.863-.735-2.631-4.917-5.261-9.841-7.816-14.635a1.3,1.3,0,0,1-.211-.935,1.338,1.338,0,0,1,.727-.669c.52-.272,1.043-.538,1.566-.8.447-.229.894-.455,1.339-.686a30.724,30.724,0,0,0,4.313-2.572,20.01,20.01,0,0,1,9.865-4.085,20.2,20.2,0,0,1,2.071-.11,13.008,13.008,0,0,1,9.653,3.845,6.029,6.029,0,0,0,2.368,1.28,29.25,29.25,0,0,0,6.174,1.073c.48.048.977.1,1.463.152a10.723,10.723,0,0,1,3.02.753c1.34.575,1.795,1.581,1.435,3.165a1.235,1.235,0,0,0-.021.341c0,.033,0,.07,0,.115v1.2l1-.663c.255-.17.5-.339.748-.506.516-.352,1-.685,1.506-.982q1.06-.624,2.116-1.252c2.375-1.408,4.83-2.864,7.284-4.213a4.574,4.574,0,0,1,2.231-.582,4.8,4.8,0,0,1,4.653,3.909.988.988,0,0,0,.1.267v.687c-.233,1.575-1.276,2.636-2.614,3.855a52.123,52.123,0,0,1-21.643,12.3,32.216,32.216,0,0,1-7.116,1.163C-2975.521,2519.925-2975.715,2519.93-2975.906,2519.93Zm-15.116-6.771a5.325,5.325,0,0,1,2.467.646c1.248.64,2.574,1.283,3.944,1.91a22.3,22.3,0,0,0,9.442,2.331,17.27,17.27,0,0,0,3.636-.39,48.556,48.556,0,0,0,13.453-5.064,54.014,54.014,0,0,0,11.438-8.648,2.968,2.968,0,0,0,.741-1.6,2.22,2.22,0,0,0-1.27-2.319,3.025,3.025,0,0,0-1.579-.468,2.94,2.94,0,0,0-1.511.434l-.82.485c-2.608,1.54-5.3,3.132-7.947,4.715-.356.214-.711.433-1.066.651a19.926,19.926,0,0,1-4.731,2.377,32.218,32.218,0,0,1-9.309,1.234c-.815,0-1.645-.021-2.536-.064a12.059,12.059,0,0,1-4.335-.865.944.944,0,0,1-.668-1.2.816.816,0,0,1,.827-.583,1.486,1.486,0,0,1,.468.08,16.95,16.95,0,0,0,5.32.871h0a16.85,16.85,0,0,0,2.44-.18,12.241,12.241,0,0,0,6.246-2.513,5.717,5.717,0,0,0,.729-.759c.089-.105.178-.209.27-.311l.214-.234-.18-1.009-.434-.083c-.253-.049-.507-.1-.76-.153-.562-.116-1.143-.237-1.729-.321-.816-.116-1.646-.22-2.448-.318-1.4-.175-2.847-.355-4.248-.608a7.277,7.277,0,0,1-4.309-2,9.673,9.673,0,0,0-4.762-2.832,14.463,14.463,0,0,0-3.873-.54c-3.431,0-6.786,1.213-10.879,3.932l-.488.325,1.277,2.372c1.865,3.464,3.627,6.736,5.442,10.069a1.382,1.382,0,0,0,1.125.641c.023,0,.046,0,.069,0C-2991.248,2513.164-2991.133,2513.159-2991.022,2513.159Zm-14.428-9.565,7.19,13.458,4.469-2.785-7.1-13.017Z" transform="translate(3007.597 -2460.991)" fill="#fff" stroke="#fff" stroke-width="0.5"/>
    <path id="Path_527" data-name="Path 527" d="M-2816.986,2248.092a10.776,10.776,0,0,1-1.608-.126,1.989,1.989,0,0,1-1.694-1.7,2.265,2.265,0,0,0-1.763-1.953,8.061,8.061,0,0,1-2.017-.974,1.72,1.72,0,0,0-.923-.281,2.442,2.442,0,0,0-.861.19,9.576,9.576,0,0,1-1.348.355c-.173.037-.346.074-.518.113-1.448-.3-2.2-1.457-2.967-2.827a2.245,2.245,0,0,1,.486-2.6,1.77,1.77,0,0,0,.3-1.784,2.392,2.392,0,0,0-2.017-1.868,2.259,2.259,0,0,1-1.789-2.28c-.022-.513-.007-1.048.007-1.564v-.059a2.349,2.349,0,0,1,2-2.494,1.9,1.9,0,0,0,1.689-1.606.358.358,0,0,1,.047-.111,1.862,1.862,0,0,0-.195-2.261,2.356,2.356,0,0,1,.2-3.325l.3-.339c.227-.261.442-.509.669-.749a2.466,2.466,0,0,1,1.792-.85,2.32,2.32,0,0,1,1.153.321,2.584,2.584,0,0,0,1.3.389,2.453,2.453,0,0,0,1.331-.436,6.46,6.46,0,0,1,1.154-.526c.289-.109.587-.223.879-.363a1.53,1.53,0,0,0,.882-1.014,2.836,2.836,0,0,1,2.2-2.538h2.326c.149.074.3.142.449.206a2.7,2.7,0,0,1,.9.529,4.071,4.071,0,0,1,.571,1.087c.11.266.223.542.364.81a2.165,2.165,0,0,0,.859.908c.436.219.882.421,1.314.617.524.237,1.02.461,1.5.718a1.748,1.748,0,0,0,.834.236h0a1.537,1.537,0,0,0,.786-.229,3.107,3.107,0,0,1,1.534-.514,1.787,1.787,0,0,1,.614.109,2.72,2.72,0,0,1,.979.535,13.42,13.42,0,0,1,1.552,1.807,2.4,2.4,0,0,1-.161,2.849c-.037.054-.087.116-.141.182a1.526,1.526,0,0,0-.465,1.121,5.555,5.555,0,0,0,.612,1.764,1.278,1.278,0,0,0,.952.573l.093.021c1.777.434,2.32,1.125,2.321,2.958,0,.113,0,.227,0,.341,0,.3,0,.575-.006.854a2.33,2.33,0,0,1-1.9,2.38,2.287,2.287,0,0,0-1.828,1.555,2.514,2.514,0,0,0,.332,2.692,2.237,2.237,0,0,1-.183,2.88c-.315.379-.659.755-.992,1.119l-.052.059a2.5,2.5,0,0,1-1.849.962,2.781,2.781,0,0,1-1.341-.4,2.3,2.3,0,0,0-1.142-.344,2.086,2.086,0,0,0-1.122.359,11.282,11.282,0,0,1-2.063.917l-.033.012a1.55,1.55,0,0,0-1.107,1.268c-.237,1.321-.855,2.045-1.888,2.214A8.157,8.157,0,0,1-2816.986,2248.092Zm-7.924-7.2a1.885,1.885,0,0,1,.909.306,20.694,20.694,0,0,0,3.8,1.788,1.6,1.6,0,0,1,1.318,1.362c.227,1.139.39,1.962,1.7,1.962.23,0,.5-.02.841-.044a.822.822,0,0,0,.386-.134l.016-.011.256-.134.066-.281c.038-.157.079-.315.119-.475.1-.373.2-.758.268-1.157.1-.531.372-.794,1.087-1.045a18.432,18.432,0,0,0,3.554-1.573,2.156,2.156,0,0,1,1.1-.385,1.767,1.767,0,0,1,.9.289,3.168,3.168,0,0,0,1.507.617c.712,0,1.064-.545,1.645-1.448l.235-.364-.246-.36-.334-.475c-.252-.355-.512-.723-.762-1.087a1.013,1.013,0,0,1-.063-1.043c.432-1.087.811-2.09,1.159-3.065a.956.956,0,0,1,.729-.718c.214-.049.426-.1.631-.158.291-.075.565-.146.842-.2a1.1,1.1,0,0,0,.949-1.249c-.016-.252-.012-.508-.008-.782,0-.122,0-.243,0-.362v-.506l-1.085-.262-1.236-.3a1.071,1.071,0,0,1-.847-.825c-.308-.984-.685-1.94-1.014-2.746a1.078,1.078,0,0,1,.115-1.182c.268-.36.527-.725.779-1.079q.163-.231.324-.457l.285-.4-.308-.38c-.668-.829-1.036-1.284-1.71-1.284a3.459,3.459,0,0,0-1.476.534l-.062.031a2.345,2.345,0,0,0-.208.109,1.161,1.161,0,0,1-.6.194,1.3,1.3,0,0,1-.76-.305,9.945,9.945,0,0,0-3.933-1.847,1.467,1.467,0,0,1-1.287-1.375c-.211-1.084-.378-1.941-1.6-1.941a9.338,9.338,0,0,0-1,.085.766.766,0,0,0-.267.082l-.036.017-.29.129-.2.83c-.1.408-.2.829-.3,1.252a.95.95,0,0,1-.79.8,12.028,12.028,0,0,0-4.226,1.906,1.016,1.016,0,0,1-.593.216,1.139,1.139,0,0,1-.538-.154c-.388-.208-.778-.414-1.176-.622l-.993-.523-1.74,2.037.628.885c.252.355.5.706.751,1.055a1.1,1.1,0,0,1,.074,1.19c-.447,1.067-.808,1.971-1.11,2.912a1.1,1.1,0,0,1-.886.856c-.407.092-.812.192-1.2.29-.175.043-.35.087-.523.129l-.428.1-.058.437c-.125.946-.194,1.467.091,1.915.3.471.815.594,1.67.8.084.021.172.038.259.054.062.012.123.023.185.037a1.115,1.115,0,0,1,.905.9,26.772,26.772,0,0,0,.976,2.637,1.107,1.107,0,0,1-.1,1.23c-.264.348-.521.706-.768,1.053l-.335.469-.3.414,1.75,2.015.448-.227c.161-.082.32-.161.476-.238.346-.171.7-.349,1.049-.543A1.212,1.212,0,0,1-2824.91,2240.9Z" transform="translate(2856.084 -2214.832)" fill="#fff" stroke="#fff" stroke-width="0.5"/>
    <path id="Path_528" data-name="Path 528" d="M-2743.87,2310.591a5.8,5.8,0,0,1-5.88-5.784,5.773,5.773,0,0,1,1.7-4.136,5.752,5.752,0,0,1,4.105-1.72,5.842,5.842,0,0,1,5.81,5.807,5.773,5.773,0,0,1-5.686,5.833Zm-.109-9.792a3.956,3.956,0,0,0-2.814,1.173,4.018,4.018,0,0,0-1.14,2.882,4.044,4.044,0,0,0,3.983,3.945h.048a4.031,4.031,0,0,0,3.955-4.084,3.942,3.942,0,0,0-4-3.915Z" transform="translate(2782.923 -2288.128)" fill="#fff" stroke="#fff" stroke-width="0.5"/>
  </g>
</svg>
