<svg id="hJtAwy.tif" xmlns="http://www.w3.org/2000/svg" width="18.305" height="18.303" viewBox="0 0 18.305 18.303">
  <g id="Group_12" data-name="Group 12" transform="translate(0)">
    <path id="Path_6" data-name="Path 6" d="M643.783,1159h.9c.055.012.109.028.164.036.386.058.778.091,1.159.174a8.207,8.207,0,0,1,4.94,12.712c-.1.138-.2.273-.321.445a2.12,2.12,0,0,1,.192.151q1.58,1.577,3.159,3.156a.938.938,0,0,1-.4,1.629h-.385a5.691,5.691,0,0,1-.658-.487c-1.016-1-2.019-2.011-3.028-3.018-.054-.054-.111-.1-.169-.158-.068.05-.118.088-.17.125a8.211,8.211,0,0,1-13.008-5.074c-.086-.43-.108-.873-.159-1.309v-.3c.01-.084.027-.168.03-.252a7.278,7.278,0,0,1,.45-2.317,8.12,8.12,0,0,1,6.187-5.347C643.034,1159.087,643.411,1159.054,643.783,1159Zm6.831,8.222a6.386,6.386,0,1,0-6.389,6.39A6.372,6.372,0,0,0,650.614,1167.222Z" transform="translate(-636 -1159)" fill="#fff"/>
  </g>
</svg>
