<svg xmlns="http://www.w3.org/2000/svg" xmlns:xlink="http://www.w3.org/1999/xlink" width="25" height="23" viewBox="0 0 25 23">
  <defs>
    <clipPath id="clip-path">
      <rect id="Rectangle_496" data-name="Rectangle 496" width="25" height="23" transform="translate(1075 5513)" fill="#fff" stroke="#707070" stroke-width="1"/>
    </clipPath>
  </defs>
  <g id="Mask_Group_70" data-name="Mask Group 70" transform="translate(-1075 -5513)" clip-path="url(#clip-path)">
    <g id="qWLju0.tif" transform="translate(1083.892 5508.272) rotate(45)">
      <g id="Group_195" data-name="Group 195" transform="translate(0 0)">
        <path id="Path_530" data-name="Path 530" d="M12.592,22.827c-.089-.029-.179-.06-.268-.088A2.158,2.158,0,0,1,10.9,21.465Q10,19.3,9.11,17.13a.773.773,0,1,1,1.422-.6c.422,1.012.839,2.027,1.257,3.04.17.411.338.822.509,1.233a.713.713,0,0,0,.689.5.745.745,0,0,0,.718-.5q1.726-4.216,3.458-8.43c1.333-3.249,2.66-6.5,4.006-9.743a.747.747,0,0,0-.584-1.094,1.078,1.078,0,0,0-.47.095Q15.856,3.38,11.6,5.14L2.023,9.092a.774.774,0,0,0-.508.74.715.715,0,0,0,.494.672q3.171,1.3,6.338,2.617a.272.272,0,0,0,.357-.076q1.6-1.625,3.218-3.238a.765.765,0,0,1,1.268.159.75.75,0,0,1-.133.867q-1.891,1.9-3.792,3.8a.806.806,0,0,1-.948.138Q5.65,13.66,2.984,12.556c-.513-.213-1.022-.433-1.538-.639a2.218,2.218,0,0,1-1.4-1.658A.479.479,0,0,0,0,10.165V9.452a.845.845,0,0,0,.047-.118A2.242,2.242,0,0,1,1.42,7.7C2.656,7.182,3.9,6.674,5.134,6.166L20.157,0h.667a.839.839,0,0,0,.122.045,2.268,2.268,0,0,1,1.659,3.1q-3.753,9.148-7.51,18.295a2.165,2.165,0,0,1-1.18,1.209c-.168.073-.347.12-.522.179Z" transform="translate(0 0)" fill="#17355a"/>
      </g>
    </g>
  </g>
</svg>
