<svg id="SRGKP7.tif" xmlns="http://www.w3.org/2000/svg" width="30.015" height="29.953" viewBox="0 0 30.015 29.953">
  <g id="Group_32" data-name="Group 32" transform="translate(0 0)">
    <path id="Path_468" data-name="Path 468" d="M748.189,1145.393a3.757,3.757,0,0,1,1.663.8,3.107,3.107,0,0,1,1.079,2.354q.012,3.79,0,7.581a3.179,3.179,0,0,1-3.173,3.166q-3.765.012-7.53,0a3.2,3.2,0,0,1-3.159-2.52c-.018-.074-.046-.146-.069-.219v-8.423c.025-.084.054-.167.074-.251a3,3,0,0,1,1.333-1.924,9.088,9.088,0,0,1,1.34-.565Zm.6,6.944q0-1.771,0-3.542a1.118,1.118,0,0,0-1.249-1.263q-3.584,0-7.168,0a1.112,1.112,0,0,0-1.233,1.246q0,3.559,0,7.118a1.124,1.124,0,0,0,1.283,1.264h7.1a1.121,1.121,0,0,0,1.266-1.28Q748.794,1154.108,748.793,1152.337Z" transform="translate(-737 -1145.393)" fill="#fff"/>
    <path id="Path_469" data-name="Path 469" d="M990.916,1156.556a7.021,7.021,0,0,1-.345.967,3.052,3.052,0,0,1-2.818,1.766c-2.543.022-5.087.013-7.63,0a3.179,3.179,0,0,1-3.139-3.132c-.01-2.5-.005-5.009,0-7.513a3.183,3.183,0,0,1,2.558-3.189,1.749,1.749,0,0,0,.187-.066h8.442a1.733,1.733,0,0,0,.187.065,3.156,3.156,0,0,1,2.318,1.919,7.573,7.573,0,0,1,.242.757Zm-11.793-4.2q0,1.787,0,3.576a1.106,1.106,0,0,0,1.22,1.225q3.6,0,7.2,0a1.1,1.1,0,0,0,1.227-1.217q0-3.592,0-7.185a1.107,1.107,0,0,0-1.22-1.225q-3.6,0-7.2,0a1.107,1.107,0,0,0-1.228,1.217Q979.121,1150.553,979.124,1152.358Z" transform="translate(-960.901 -1145.393)" fill="#fff"/>
    <path id="Path_470" data-name="Path 470" d="M737,1387.545a7.492,7.492,0,0,1,.476-1.2,3.017,3.017,0,0,1,2.687-1.537c2.534-.016,5.067-.011,7.6,0a3.178,3.178,0,0,1,3.168,3.173q.011,3.775,0,7.55a3.181,3.181,0,0,1-3.2,3.175q-3.75.009-7.5,0a3.2,3.2,0,0,1-3.161-2.52c-.018-.074-.046-.146-.069-.219Zm7-.6q-1.809,0-3.618,0a1.111,1.111,0,0,0-1.24,1.239q0,3.576,0,7.152a1.112,1.112,0,0,0,1.242,1.237q3.584,0,7.168,0a1.109,1.109,0,0,0,1.24-1.239q0-3.576,0-7.152a1.111,1.111,0,0,0-1.242-1.237Q745.775,1386.94,744,1386.942Z" transform="translate(-737 -1368.76)" fill="#fff"/>
    <path id="Path_471" data-name="Path 471" d="M990.909,1396.009a7.042,7.042,0,0,1-.345.967,3.053,3.053,0,0,1-2.819,1.765c-2.534.021-5.067.012-7.6,0a3.181,3.181,0,0,1-3.167-3.174q-.01-3.775,0-7.551a3.182,3.182,0,0,1,3.2-3.173q3.75-.008,7.5,0a3.192,3.192,0,0,1,3.161,2.519c.017.075.046.146.07.22Zm-11.793-4.234q0,1.8,0,3.609a1.106,1.106,0,0,0,1.218,1.227q3.6,0,7.2,0a1.1,1.1,0,0,0,1.23-1.215q0-3.593,0-7.185a1.107,1.107,0,0,0-1.218-1.227q-3.6,0-7.2,0a1.108,1.108,0,0,0-1.23,1.215C979.114,1389.391,979.116,1390.583,979.116,1391.775Z" transform="translate(-960.894 -1368.802)" fill="#fff"/>
  </g>
</svg>
