<svg xmlns="http://www.w3.org/2000/svg" width="24.976" height="24.979" viewBox="0 0 24.976 24.979">
  <g id="bnzWbx.tif" transform="translate(-1899.488 -1654.38)">
    <g id="Group_62" data-name="Group 62" transform="translate(1899.488 1654.38)">
      <path id="Path_508" data-name="Path 508" d="M1912.22,1654.38l.2.112a.939.939,0,0,1,.478.985.88.88,0,0,1-.727.754c-.393.056-.793.054-1.189.09a10.581,10.581,0,0,0-6.86,17.638,10.056,10.056,0,0,0,6.227,3.377,10.634,10.634,0,0,0,11.88-7.8,9.931,9.931,0,0,0,.334-2.4,2.576,2.576,0,0,1,.026-.388.924.924,0,0,1,.773-.8.94.94,0,0,1,1.029.565c.019.041.046.078.069.117v1.073c-.037.3-.069.594-.113.89a12.283,12.283,0,0,1-4.642,8.071,12.476,12.476,0,0,1-17.119-18.012,12.3,12.3,0,0,1,7.5-4.12c.351-.055.7-.1,1.056-.145Z" transform="translate(-1899.488 -1654.38)"/>
      <path id="Path_509" data-name="Path 509" d="M2026.612,1730.106a1.987,1.987,0,0,1,.186-.263q5.468-5.461,10.938-10.919a1.015,1.015,0,0,1,1.045-.356.939.939,0,0,1,.486,1.486,2.287,2.287,0,0,1-.182.2q-5.875,5.864-11.75,11.728a.981.981,0,0,1-1.09.335,1.17,1.17,0,0,1-.437-.294q-2.328-2.512-4.642-5.037a.952.952,0,0,1,.035-1.423.931.931,0,0,1,1.3.089c.6.63,1.181,1.276,1.77,1.915Z" transform="translate(-2014.932 -1715.394)"/>
    </g>
  </g>
</svg>
