<svg xmlns="http://www.w3.org/2000/svg" width="49.313" height="41.196" viewBox="0 0 49.313 41.196">
  <g id="DBCNmK.tif" transform="translate(0 0)">
    <g id="Group_122" data-name="Group 122" transform="translate(0 0)">
      <path id="Path_1450" data-name="Path 1450" d="M1467.826,2054.1c-.134.756-.231,1.521-.407,2.267a12.968,12.968,0,0,1-11.256,9.958,65.07,65.07,0,0,1-6.529.107,1.639,1.639,0,0,1,.092-3.268c1.664-.017,3.328.005,4.993-.009a9.868,9.868,0,0,0,1.074-19.681c-.307-.033-.615-.065-.922-.074a1.823,1.823,0,0,1-1.954-1.71,9,9,0,0,0-1.811-4.2,9.856,9.856,0,0,0-17.565,4.128,1.987,1.987,0,0,1-2.092,1.8,9.867,9.867,0,0,0,.031,19.73c1.681.034,3.363.006,5.044.01a1.647,1.647,0,1,1,.007,3.288c-1.716,0-3.432.009-5.147,0a13.17,13.17,0,0,1-2.866-25.956,9.1,9.1,0,0,1,1.462-.265.582.582,0,0,0,.592-.494,12.86,12.86,0,0,1,7.849-8.609,13.14,13.14,0,0,1,17.441,8.591.6.6,0,0,0,.611.522,13.2,13.2,0,0,1,11.147,10.907c.064.439.137.875.206,1.312Z" transform="translate(-1418.513 -2030.195)" fill="#fff"/>
      <path id="Path_1451" data-name="Path 1451" d="M1571.73,2185.927a1.962,1.962,0,0,1-1.249-2.065c.029-6.532.015-13.064.015-19.6v-.664c-.2.185-.336.3-.462.426q-2.44,2.435-4.877,4.871a1.6,1.6,0,0,1-1.685.475,1.584,1.584,0,0,1-1.163-1.247,1.509,1.509,0,0,1,.421-1.466q4.121-4.136,8.259-8.254a1.576,1.576,0,0,1,2.308,0q4.126,4.092,8.222,8.218a1.647,1.647,0,1,1-2.358,2.3q-2.449-2.424-4.875-4.873a3.678,3.678,0,0,1-.334-.452l-.165.081v.53c0,6.548-.014,13.1.015,19.645a1.959,1.959,0,0,1-1.248,2.067Z" transform="translate(-1547.434 -2144.732)" fill="#fff"/>
    </g>
  </g>
</svg>
