<svg xmlns="http://www.w3.org/2000/svg" width="66.867" height="56.338" viewBox="0 0 66.867 56.338">
  <g id="Group_214" data-name="Group 214" transform="translate(0)">
    <path id="Path_978" data-name="Path 978" d="M414.7,636.584c-.344,0-.694-.009-1.039-.027a22.805,22.805,0,0,1-11.378-3.445,21.429,21.429,0,0,1-7.631-9.01c-3.669-7.723-2.876-15.328,2.358-22.6a1.461,1.461,0,0,0,.2-1.087,3.615,3.615,0,0,1,1.156-3.843,3.489,3.489,0,0,1,2.323-.92,4.3,4.3,0,0,1,1.64.355,1.379,1.379,0,0,0,.507.1.74.74,0,0,0,.373-.087,21.991,21.991,0,0,1,9-2.9.751.751,0,0,0,.254-.08l.02-.009h3.606c.366.068.733.132,1.1.195.791.137,1.609.278,2.4.465a21.8,21.8,0,0,1,11.823,34.574,1.357,1.357,0,0,0-.2,1.038,3.614,3.614,0,0,1-1.16,3.842,3.508,3.508,0,0,1-2.332.925,4.307,4.307,0,0,1-1.632-.351,1.323,1.323,0,0,0-.492-.089,1.18,1.18,0,0,0-.565.129A21.077,21.077,0,0,1,414.7,636.584Zm2.368-13.82c-2.031,0-4.212,0-6.389.015a.957.957,0,0,0-.666.422c-.162.188-.316.385-.466.575a8.88,8.88,0,0,1-.769.9.852.852,0,0,0-.29.989c.166.485.328.982.485,1.462.337,1.031.685,2.1,1.1,3.123a8.13,8.13,0,0,0,2.584,3.591,2.758,2.758,0,0,0,1.652.637h0a2.406,2.406,0,0,0,1.609-.683,9.832,9.832,0,0,0,1.848-2.2,25.281,25.281,0,0,0,2.846-8.511l.059-.313Zm-20.606.383a20.065,20.065,0,0,0,12.594,10.617l.675.207-.375-.6a24.787,24.787,0,0,1-3.024-7.531.961.961,0,0,0-.646-.56,3.6,3.6,0,0,1-2.341-1.929.926.926,0,0,0-.951-.6h-.042c-.408.007-.854.01-1.4.01l-.908,0-.909,0h-2.867ZM422.795,623a28.8,28.8,0,0,1-3.508,10.224l-.1.159.376.469,4.65-1.969-.051-.217a3.756,3.756,0,0,1,1.121-4.12,3.424,3.424,0,0,1,2.286-.87,5.132,5.132,0,0,1,1.9.413l.205.083,2.723-4.389h-9.561Zm4.865,5.808a1.523,1.523,0,0,0-1.555,1.523,1.539,1.539,0,0,0,1.526,1.583h.028a1.553,1.553,0,0,0,.023-3.106Zm-21.039-8.675a1.6,1.6,0,0,0-1.563,1.521,1.611,1.611,0,0,0,1.563,1.622,1.571,1.571,0,0,0,.029-3.142ZM401.9,608.948c-1.842,0-3.826,0-5.845.018a.893.893,0,0,0-.711.59,19.41,19.41,0,0,0,.006,10.5.959.959,0,0,0,.781.583c1.053.014,2.132.021,3.207.021,1.02,0,2.065-.006,3.107-.019a1.245,1.245,0,0,0,.776-.428c.505-.525,1.02-1.093,1.573-1.737a1.319,1.319,0,0,0,.394-.782c.018-2.246.016-4.448.015-6.779v-1.967Zm23.5.161a4.08,4.08,0,0,1-1.7,2.015.889.889,0,0,0-.347.71c-.011,2.3-.01,4.569-.009,6.965v1.858h3.279c1.853,0,3.846,0,5.873-.019a.9.9,0,0,0,.709-.6,19.479,19.479,0,0,0,0-10.5.891.891,0,0,0-.722-.575c-1.459-.016-2.918-.018-4.153-.018h-2.859Zm-16.978-.159c-.131,0-.257.008-.431.019l-.331.019-.247.013-.022,1.779c-.027,2.182-.055,4.438-.067,6.648a.871.871,0,0,0,.446.741,3.946,3.946,0,0,1,2.354,2.3l.067.164h10.948l.027-2.236c.024-2.042.05-4.154.083-6.218a.813.813,0,0,0-.649-.842,3.323,3.323,0,0,1-1.961-1.733,1.033,1.033,0,0,0-1.06-.669h-.016c-1.718.011-3.417.012-4.852.012h-4.291Zm13.466-2.625a1.6,1.6,0,0,0-1.561,1.51,1.6,1.6,0,0,0,1.559,1.638,1.574,1.574,0,0,0,.049-3.147Zm-20.973.522c1.135,0,2.633,0,4.156.011.655,0,.736-.443.794-.767a27.307,27.307,0,0,1,3.325-9.582.449.449,0,0,0,.048-.282c0-.046-.006-.108-.006-.195v-.4l-5.034,2.166.053.217a3.754,3.754,0,0,1-1.047,4.092,3.426,3.426,0,0,1-2.339.929,5.032,5.032,0,0,1-1.876-.412l-.208-.085-2.617,4.309Zm18.436-10.5a26.494,26.494,0,0,1,2.87,7.426.97.97,0,0,0,.643.564,3.856,3.856,0,0,1,2.384,2.006,1.053,1.053,0,0,0,.8.494c.373.016.767.023,1.277.023l.717,0q.357,0,.714,0h3.528l-.193-.382a19.533,19.533,0,0,0-12.439-10.511l-.641-.19Zm-5.089-1.2a3.484,3.484,0,0,0-2.626,1.627c-2.144,2.749-2.917,5.912-3.7,9.761l-.065.316h3.274c2.491,0,4.587,0,6.72-.011a.852.852,0,0,0,.593-.346c.375-.475.734-.949,1.15-1.5l.538-.709-.03-.122c-.007-.029-.016-.068-.027-.116-.035-.15-.088-.378-.151-.6a18.357,18.357,0,0,0-3.032-6.685A3.544,3.544,0,0,0,414.256,595.143Zm-13.506,2.635a1.574,1.574,0,0,0,.011,3.147h.019a1.574,1.574,0,0,0-.015-3.147h-.016Z" transform="translate(-380.847 -593.029)" fill="#07388a"/>
    <path id="Path_979" data-name="Path 979" d="M329.381,1048.052h-20.5a3.932,3.932,0,0,1-3.863-2.879,2.252,2.252,0,0,0-.109-.272l-.026-.057v-1.474c.039-.1.077-.2.114-.305a5.3,5.3,0,0,1,.293-.7,3.805,3.805,0,0,1,3.525-2.193q5.563-.008,11.127-.007h12.226c.58,0,1.272.181,1.275,1.043a.988.988,0,0,1-.26.731,1.387,1.387,0,0,1-1,.323H309.357c-1.461,0-2.342.683-2.357,1.827a1.676,1.676,0,0,0,.472,1.231,2.541,2.541,0,0,0,1.854.633h58.09c1.321-.007,2.208-.75,2.2-1.849s-.891-1.841-2.212-1.841H344.351a1.805,1.805,0,0,1-.37-.029,1.052,1.052,0,0,1,.151-2.066,1.587,1.587,0,0,1,.171-.007l.2,0h12.658q5.315,0,10.63,0a3.923,3.923,0,0,1,3.917,3.342,3.977,3.977,0,0,1-2.672,4.34,4.191,4.191,0,0,1-1.271.2C356.213,1048.05,344.018,1048.052,329.381,1048.052Z" transform="translate(-304.886 -991.715)" fill="#07388a"/>
    <path id="Path_980" data-name="Path 980" d="M308.248,737.315a1.356,1.356,0,0,1-.154-.009c-.465-.053-.751-.326-.958-.913-.668-1.9-1.337-3.785-1.988-5.615-.058-.163-.127-.319-.195-.47-.023-.051-.046-.1-.068-.154v-.662c.314-.512.624-.731,1.029-.731a1.251,1.251,0,0,1,.187.014c.541.081.771.454.986,1.071q.474,1.362.959,2.721c.365,1.03.743,2.1,1.106,3.145a1.329,1.329,0,0,1-.1,1.212A.957.957,0,0,1,308.248,737.315Z" transform="translate(-304.886 -718.371)" fill="#07388a"/>
    <path id="Path_981" data-name="Path 981" d="M706.5,853.014a1,1,0,0,1-.849-.407,1.254,1.254,0,0,1-.1-1.149c.755-2.163,1.535-4.358,2.289-6.481l.616-1.735q1.464-4.129,2.931-8.257l1.124-3.167.036-.1c.03-.086.059-.171.093-.255a1.113,1.113,0,0,1,1-.8,1.077,1.077,0,0,1,.381.073,1.041,1.041,0,0,1,.613,1.433c-.675,1.937-1.373,3.9-2.047,5.8q-.362,1.022-.724,2.044-2.11,5.962-4.221,11.924c-.32.9-.649,1.076-1.143,1.076Z" transform="translate(-652.648 -806.834)" fill="#07388a"/>
    <path id="Path_982" data-name="Path 982" d="M349.349,853c-.475,0-.81-.174-1.113-1.029q-1.351-3.814-2.7-7.628L344,839.988l-.7-1.971c-.654-1.843-1.33-3.749-1.984-5.628a1.974,1.974,0,0,1-.15-.883,1.1,1.1,0,0,1,1.065-.86,1.083,1.083,0,0,1,.989.8c.45,1.238.9,2.5,1.328,3.724l.451,1.275,1.135,3.2q2.073,5.843,4.141,11.688a1.4,1.4,0,0,1-.075,1.275.971.971,0,0,1-.836.39Z" transform="translate(-336.37 -806.821)" fill="#07388a"/>
    <path id="Path_983" data-name="Path 983" d="M779.965,737.271a1.247,1.247,0,0,1-1.056-.449,1.21,1.21,0,0,1-.09-1.115c.356-1.042.732-2.1,1.1-3.118q.237-.664.472-1.328.093-.263.185-.528c.137-.394.278-.8.428-1.195a1.134,1.134,0,0,1,1.026-.824,1.07,1.07,0,0,1,.348.061,1.015,1.015,0,0,1,.6.511,1.256,1.256,0,0,1,.013.971c-.574,1.653-1.169,3.331-1.743,4.953l-.434,1.225C780.635,736.945,780.318,737.256,779.965,737.271Z" transform="translate(-716.252 -718.331)" fill="#07388a"/>
    <path id="Path_984" data-name="Path 984" d="M551.541,1042.283a1.055,1.055,0,0,1-.757-.314,1.048,1.048,0,0,1,.731-1.782h.025a1.011,1.011,0,0,1,1.042,1.036,1.059,1.059,0,0,1-.295.764,1.039,1.039,0,0,1-.746.3Z" transform="translate(-518.101 -991.736)" fill="#07388a"/>
  </g>
</svg>
